<mxfile host="app.diagrams.net" agent="Mozilla/5.0 (Windows NT 10.0; Win64; x64) AppleWebKit/537.36 (KHTML, like Gecko) Chrome/132.0.0.0 Safari/537.36" version="26.0.10">
  <diagram name="第 1 页" id="l_hmXYmpLsSGW2xiB5yM">
    <mxGraphModel dx="1221" dy="1925" grid="0" gridSize="10" guides="1" tooltips="1" connect="1" arrows="1" fold="1" page="0" pageScale="1" pageWidth="827" pageHeight="1169" math="1" shadow="0">
      <root>
        <mxCell id="0" />
        <mxCell id="1" parent="0" />
        <mxCell id="rH-5OL1kYu_r9igjsGon-614" value="" style="rounded=1;whiteSpace=wrap;html=1;strokeColor=none;strokeWidth=2;fillColor=#EDEDED;" parent="1" vertex="1">
          <mxGeometry x="110.5" y="-732" width="834" height="198" as="geometry" />
        </mxCell>
        <mxCell id="rH-5OL1kYu_r9igjsGon-3" value="" style="rounded=1;whiteSpace=wrap;html=1;strokeColor=none;strokeWidth=1;fillColor=#EDEDED;" parent="1" vertex="1">
          <mxGeometry x="325" y="-1044" width="620" height="296" as="geometry" />
        </mxCell>
        <mxCell id="ipxWhFgHdUj-HXUA2bHc-238" value="Distance-based Reward updates" style="rounded=1;whiteSpace=wrap;html=1;fontSize=24;fontFamily=Times New Roman;fillColor=#D5E8D4;strokeColor=#9AC7BF;fontColor=#242424;shadow=1;" parent="1" vertex="1">
          <mxGeometry x="559" y="-989" width="173" height="83.21" as="geometry" />
        </mxCell>
        <mxCell id="ipxWhFgHdUj-HXUA2bHc-239" value="Credibility updates" style="rounded=1;whiteSpace=wrap;html=1;fontSize=24;fontFamily=Times New Roman;fillColor=#D5E8D4;strokeColor=#9AC7BF;fontColor=#242424;shadow=1;" parent="1" vertex="1">
          <mxGeometry x="581" y="-844.09" width="129" height="72.21" as="geometry" />
        </mxCell>
        <mxCell id="ipxWhFgHdUj-HXUA2bHc-436" value="&lt;font face=&quot;Times New Roman&quot;&gt;&lt;font style=&quot;color: rgb(0, 0, 0);&quot;&gt;Feature Layer Measurement Module&lt;/font&gt;&lt;/font&gt;" style="text;html=1;align=center;verticalAlign=middle;resizable=0;points=[];autosize=1;strokeColor=none;fillColor=none;fontSize=24;fontFamily=Comic Sans MS;fontColor=#FF0000;fontStyle=1" parent="1" vertex="1">
          <mxGeometry x="451" y="-1040" width="369" height="43" as="geometry" />
        </mxCell>
        <mxCell id="rH-5OL1kYu_r9igjsGon-516" style="edgeStyle=orthogonalEdgeStyle;rounded=0;orthogonalLoop=1;jettySize=auto;html=1;entryX=1;entryY=0.5;entryDx=0;entryDy=0;" parent="1" source="ipxWhFgHdUj-HXUA2bHc-441" target="rH-5OL1kYu_r9igjsGon-391" edge="1">
          <mxGeometry relative="1" as="geometry" />
        </mxCell>
        <mxCell id="ipxWhFgHdUj-HXUA2bHc-441" value="$$\overline{\omega}_{ij},j\in N_i$$" style="rounded=1;whiteSpace=wrap;html=1;fontSize=24;fontFamily=Times New Roman;fillColor=#FFF2CC;strokeColor=#FFCE9F;fontColor=#242424;shadow=1;" parent="1" vertex="1">
          <mxGeometry x="570.4999999999998" y="-696.0399999999998" width="150" height="70.28" as="geometry" />
        </mxCell>
        <mxCell id="rH-5OL1kYu_r9igjsGon-233" style="edgeStyle=orthogonalEdgeStyle;rounded=0;orthogonalLoop=1;jettySize=auto;html=1;" parent="1" source="ipxWhFgHdUj-HXUA2bHc-351" target="ipxWhFgHdUj-HXUA2bHc-238" edge="1">
          <mxGeometry relative="1" as="geometry" />
        </mxCell>
        <mxCell id="rH-5OL1kYu_r9igjsGon-391" value="Aggregate and Concat" style="rounded=1;whiteSpace=wrap;html=1;fontSize=24;fontFamily=Times New Roman;fillColor=#FFF2CC;strokeColor=#FFCE9F;fontColor=#242424;shadow=1;" parent="1" vertex="1">
          <mxGeometry x="398.72" y="-697" width="129" height="72.21" as="geometry" />
        </mxCell>
        <mxCell id="rH-5OL1kYu_r9igjsGon-518" value="$$\text{Worker}\ i$$" style="text;html=1;align=center;verticalAlign=middle;resizable=0;points=[];autosize=1;strokeColor=none;fillColor=none;fontSize=24;fontFamily=Times New Roman;container=0;fontColor=#242424;" parent="1" vertex="1">
          <mxGeometry x="74" y="-999.99" width="222" height="41" as="geometry" />
        </mxCell>
        <mxCell id="rH-5OL1kYu_r9igjsGon-521" value="" style="html=1;shadow=0;dashed=0;align=center;verticalAlign=middle;shape=mxgraph.arrows2.stylisedArrow;dy=0.76;dx=18.55;notch=7.74;feather=0.49;rotation=-30;aspect=fixed;fillColor=#FFF2CC;strokeColor=#FFCE9F;fontColor=#242424;" parent="1" vertex="1">
          <mxGeometry x="272.5" y="-932.97" width="46.96" height="30.98" as="geometry" />
        </mxCell>
        <mxCell id="rH-5OL1kYu_r9igjsGon-523" style="edgeStyle=orthogonalEdgeStyle;rounded=0;orthogonalLoop=1;jettySize=auto;html=1;entryX=0;entryY=0.5;entryDx=0;entryDy=0;" parent="1" source="ipxWhFgHdUj-HXUA2bHc-221" target="rH-5OL1kYu_r9igjsGon-391" edge="1">
          <mxGeometry relative="1" as="geometry" />
        </mxCell>
        <mxCell id="rH-5OL1kYu_r9igjsGon-575" value="" style="group" parent="1" vertex="1" connectable="0">
          <mxGeometry x="743.5" y="-883" width="183.88" height="117" as="geometry" />
        </mxCell>
        <mxCell id="rH-5OL1kYu_r9igjsGon-331" value="" style="rounded=1;whiteSpace=wrap;html=1;fillColor=#F7F7F7;strokeColor=#CCCCCC;movable=1;resizable=1;rotatable=1;deletable=1;editable=1;locked=0;connectable=1;fontColor=#242424;container=0;shadow=1;" parent="rH-5OL1kYu_r9igjsGon-575" vertex="1">
          <mxGeometry width="146.35222944293218" height="86.99999999999997" as="geometry" />
        </mxCell>
        <mxCell id="rH-5OL1kYu_r9igjsGon-332" value="" style="ellipse;whiteSpace=wrap;html=1;fillColor=#E1D5E7;strokeColor=#A680B8;movable=1;resizable=1;rotatable=1;deletable=1;editable=1;locked=0;connectable=1;fontColor=#242424;container=0;" parent="rH-5OL1kYu_r9igjsGon-575" vertex="1">
          <mxGeometry x="109.29206811625419" y="15.837656797252293" width="28.326237956696545" height="28.013763711658378" as="geometry" />
        </mxCell>
        <mxCell id="rH-5OL1kYu_r9igjsGon-333" value="" style="ellipse;whiteSpace=wrap;html=1;fillColor=#E1D5E7;strokeColor=#A680B8;movable=1;resizable=1;rotatable=1;deletable=1;editable=1;locked=0;connectable=1;fontColor=#242424;container=0;" parent="rH-5OL1kYu_r9igjsGon-575" vertex="1">
          <mxGeometry x="59.24904772609028" y="15.837656797252293" width="28.326237956696545" height="28.013763711658378" as="geometry" />
        </mxCell>
        <mxCell id="rH-5OL1kYu_r9igjsGon-334" value="" style="ellipse;whiteSpace=wrap;html=1;fillColor=#E1D5E7;strokeColor=#A680B8;movable=1;resizable=1;rotatable=1;deletable=1;editable=1;locked=0;connectable=1;fontColor=#242424;container=0;" parent="rH-5OL1kYu_r9igjsGon-575" vertex="1">
          <mxGeometry x="9.206027335926379" y="15.837656797252293" width="28.326237956696545" height="28.013763711658378" as="geometry" />
        </mxCell>
        <mxCell id="rH-5OL1kYu_r9igjsGon-335" style="rounded=0;orthogonalLoop=1;jettySize=auto;html=1;exitX=0.5;exitY=1;exitDx=0;exitDy=0;entryX=0.5;entryY=0;entryDx=0;entryDy=0;dashed=1;endArrow=classicThin;endFill=1;movable=1;resizable=1;rotatable=1;deletable=1;editable=1;locked=0;connectable=1;fontColor=#242424;" parent="rH-5OL1kYu_r9igjsGon-575" source="rH-5OL1kYu_r9igjsGon-334" edge="1">
          <mxGeometry relative="1" as="geometry">
            <mxPoint x="51.6953842709712" y="78.40172908662271" as="targetPoint" />
          </mxGeometry>
        </mxCell>
        <mxCell id="rH-5OL1kYu_r9igjsGon-336" style="rounded=0;orthogonalLoop=1;jettySize=auto;html=1;exitX=0.5;exitY=1;exitDx=0;exitDy=0;entryX=0.5;entryY=0;entryDx=0;entryDy=0;dashed=1;endArrow=classicThin;endFill=1;movable=1;resizable=1;rotatable=1;deletable=1;editable=1;locked=0;connectable=1;fontColor=#242424;" parent="rH-5OL1kYu_r9igjsGon-575" source="rH-5OL1kYu_r9igjsGon-332" edge="1">
          <mxGeometry relative="1" as="geometry">
            <mxPoint x="51.6953842709712" y="78.40172908662271" as="targetPoint" />
          </mxGeometry>
        </mxCell>
        <mxCell id="rH-5OL1kYu_r9igjsGon-337" style="rounded=0;orthogonalLoop=1;jettySize=auto;html=1;exitX=0.5;exitY=1;exitDx=0;exitDy=0;entryX=0.5;entryY=0;entryDx=0;entryDy=0;dashed=1;endArrow=classicThin;endFill=1;movable=1;resizable=1;rotatable=1;deletable=1;editable=1;locked=0;connectable=1;fontColor=#242424;" parent="rH-5OL1kYu_r9igjsGon-575" source="rH-5OL1kYu_r9igjsGon-333" edge="1">
          <mxGeometry relative="1" as="geometry">
            <mxPoint x="51.6953842709712" y="78.40172908662271" as="targetPoint" />
          </mxGeometry>
        </mxCell>
        <mxCell id="rH-5OL1kYu_r9igjsGon-338" style="rounded=0;orthogonalLoop=1;jettySize=auto;html=1;exitX=0.5;exitY=1;exitDx=0;exitDy=0;entryX=0.5;entryY=0;entryDx=0;entryDy=0;dashed=1;endArrow=classicThin;endFill=1;movable=1;resizable=1;rotatable=1;deletable=1;editable=1;locked=0;connectable=1;fontColor=#242424;" parent="rH-5OL1kYu_r9igjsGon-575" source="rH-5OL1kYu_r9igjsGon-334" edge="1">
          <mxGeometry relative="1" as="geometry">
            <mxPoint x="95.1289491379059" y="78.40172908662271" as="targetPoint" />
          </mxGeometry>
        </mxCell>
        <mxCell id="rH-5OL1kYu_r9igjsGon-339" style="rounded=0;orthogonalLoop=1;jettySize=auto;html=1;exitX=0.5;exitY=1;exitDx=0;exitDy=0;entryX=0.5;entryY=0;entryDx=0;entryDy=0;dashed=1;endArrow=classicThin;endFill=1;movable=1;resizable=1;rotatable=1;deletable=1;editable=1;locked=0;connectable=1;fontColor=#242424;" parent="rH-5OL1kYu_r9igjsGon-575" source="rH-5OL1kYu_r9igjsGon-333" edge="1">
          <mxGeometry relative="1" as="geometry">
            <mxPoint x="95.1289491379059" y="78.40172908662271" as="targetPoint" />
          </mxGeometry>
        </mxCell>
        <mxCell id="rH-5OL1kYu_r9igjsGon-340" style="rounded=0;orthogonalLoop=1;jettySize=auto;html=1;exitX=0.5;exitY=1;exitDx=0;exitDy=0;entryX=0.5;entryY=0;entryDx=0;entryDy=0;dashed=1;endArrow=classicThin;endFill=1;movable=1;resizable=1;rotatable=1;deletable=1;editable=1;locked=0;connectable=1;fontColor=#242424;" parent="rH-5OL1kYu_r9igjsGon-575" source="rH-5OL1kYu_r9igjsGon-332" edge="1">
          <mxGeometry relative="1" as="geometry">
            <mxPoint x="95.1289491379059" y="78.40172908662271" as="targetPoint" />
          </mxGeometry>
        </mxCell>
        <mxCell id="rH-5OL1kYu_r9igjsGon-542" value="" style="rounded=1;whiteSpace=wrap;html=1;fillColor=#F7F7F7;strokeColor=#CCCCCC;movable=1;resizable=1;rotatable=1;deletable=1;editable=1;locked=0;connectable=1;fontColor=#242424;container=0;shadow=1;" parent="rH-5OL1kYu_r9igjsGon-575" vertex="1">
          <mxGeometry x="9.44207931889885" y="10" width="146.35222944293218" height="86.99999999999997" as="geometry" />
        </mxCell>
        <mxCell id="rH-5OL1kYu_r9igjsGon-543" value="" style="ellipse;whiteSpace=wrap;html=1;fillColor=#E1D5E7;strokeColor=#A680B8;movable=1;resizable=1;rotatable=1;deletable=1;editable=1;locked=0;connectable=1;fontColor=#242424;container=0;" parent="rH-5OL1kYu_r9igjsGon-575" vertex="1">
          <mxGeometry x="118.73414743515303" y="25.837656797252293" width="28.326237956696545" height="28.013763711658378" as="geometry" />
        </mxCell>
        <mxCell id="rH-5OL1kYu_r9igjsGon-544" value="" style="ellipse;whiteSpace=wrap;html=1;fillColor=#E1D5E7;strokeColor=#A680B8;movable=1;resizable=1;rotatable=1;deletable=1;editable=1;locked=0;connectable=1;fontColor=#242424;container=0;" parent="rH-5OL1kYu_r9igjsGon-575" vertex="1">
          <mxGeometry x="68.69112704498913" y="25.837656797252293" width="28.326237956696545" height="28.013763711658378" as="geometry" />
        </mxCell>
        <mxCell id="rH-5OL1kYu_r9igjsGon-545" value="" style="ellipse;whiteSpace=wrap;html=1;fillColor=#E1D5E7;strokeColor=#A680B8;movable=1;resizable=1;rotatable=1;deletable=1;editable=1;locked=0;connectable=1;fontColor=#242424;container=0;" parent="rH-5OL1kYu_r9igjsGon-575" vertex="1">
          <mxGeometry x="18.648106654825227" y="25.837656797252293" width="28.326237956696545" height="28.013763711658378" as="geometry" />
        </mxCell>
        <mxCell id="rH-5OL1kYu_r9igjsGon-546" style="rounded=0;orthogonalLoop=1;jettySize=auto;html=1;exitX=0.5;exitY=1;exitDx=0;exitDy=0;entryX=0.5;entryY=0;entryDx=0;entryDy=0;dashed=1;endArrow=classicThin;endFill=1;movable=1;resizable=1;rotatable=1;deletable=1;editable=1;locked=0;connectable=1;fontColor=#242424;" parent="rH-5OL1kYu_r9igjsGon-575" source="rH-5OL1kYu_r9igjsGon-545" edge="1">
          <mxGeometry relative="1" as="geometry">
            <mxPoint x="61.13746358987005" y="88.40172908662271" as="targetPoint" />
          </mxGeometry>
        </mxCell>
        <mxCell id="rH-5OL1kYu_r9igjsGon-547" style="rounded=0;orthogonalLoop=1;jettySize=auto;html=1;exitX=0.5;exitY=1;exitDx=0;exitDy=0;entryX=0.5;entryY=0;entryDx=0;entryDy=0;dashed=1;endArrow=classicThin;endFill=1;movable=1;resizable=1;rotatable=1;deletable=1;editable=1;locked=0;connectable=1;fontColor=#242424;" parent="rH-5OL1kYu_r9igjsGon-575" source="rH-5OL1kYu_r9igjsGon-543" edge="1">
          <mxGeometry relative="1" as="geometry">
            <mxPoint x="61.13746358987005" y="88.40172908662271" as="targetPoint" />
          </mxGeometry>
        </mxCell>
        <mxCell id="rH-5OL1kYu_r9igjsGon-548" style="rounded=0;orthogonalLoop=1;jettySize=auto;html=1;exitX=0.5;exitY=1;exitDx=0;exitDy=0;entryX=0.5;entryY=0;entryDx=0;entryDy=0;dashed=1;endArrow=classicThin;endFill=1;movable=1;resizable=1;rotatable=1;deletable=1;editable=1;locked=0;connectable=1;fontColor=#242424;" parent="rH-5OL1kYu_r9igjsGon-575" source="rH-5OL1kYu_r9igjsGon-544" edge="1">
          <mxGeometry relative="1" as="geometry">
            <mxPoint x="61.13746358987005" y="88.40172908662271" as="targetPoint" />
          </mxGeometry>
        </mxCell>
        <mxCell id="rH-5OL1kYu_r9igjsGon-549" style="rounded=0;orthogonalLoop=1;jettySize=auto;html=1;exitX=0.5;exitY=1;exitDx=0;exitDy=0;entryX=0.5;entryY=0;entryDx=0;entryDy=0;dashed=1;endArrow=classicThin;endFill=1;movable=1;resizable=1;rotatable=1;deletable=1;editable=1;locked=0;connectable=1;fontColor=#242424;" parent="rH-5OL1kYu_r9igjsGon-575" source="rH-5OL1kYu_r9igjsGon-545" edge="1">
          <mxGeometry relative="1" as="geometry">
            <mxPoint x="104.57102845680475" y="88.40172908662271" as="targetPoint" />
          </mxGeometry>
        </mxCell>
        <mxCell id="rH-5OL1kYu_r9igjsGon-550" style="rounded=0;orthogonalLoop=1;jettySize=auto;html=1;exitX=0.5;exitY=1;exitDx=0;exitDy=0;entryX=0.5;entryY=0;entryDx=0;entryDy=0;dashed=1;endArrow=classicThin;endFill=1;movable=1;resizable=1;rotatable=1;deletable=1;editable=1;locked=0;connectable=1;fontColor=#242424;" parent="rH-5OL1kYu_r9igjsGon-575" source="rH-5OL1kYu_r9igjsGon-544" edge="1">
          <mxGeometry relative="1" as="geometry">
            <mxPoint x="104.57102845680475" y="88.40172908662271" as="targetPoint" />
          </mxGeometry>
        </mxCell>
        <mxCell id="rH-5OL1kYu_r9igjsGon-551" style="rounded=0;orthogonalLoop=1;jettySize=auto;html=1;exitX=0.5;exitY=1;exitDx=0;exitDy=0;entryX=0.5;entryY=0;entryDx=0;entryDy=0;dashed=1;endArrow=classicThin;endFill=1;movable=1;resizable=1;rotatable=1;deletable=1;editable=1;locked=0;connectable=1;fontColor=#242424;" parent="rH-5OL1kYu_r9igjsGon-575" source="rH-5OL1kYu_r9igjsGon-543" edge="1">
          <mxGeometry relative="1" as="geometry">
            <mxPoint x="104.57102845680475" y="88.40172908662271" as="targetPoint" />
          </mxGeometry>
        </mxCell>
        <mxCell id="rH-5OL1kYu_r9igjsGon-553" value="" style="rounded=1;whiteSpace=wrap;html=1;fillColor=#F7F7F7;strokeColor=#CCCCCC;movable=1;resizable=1;rotatable=1;deletable=1;editable=1;locked=0;connectable=1;fontColor=#242424;container=0;shadow=1;" parent="rH-5OL1kYu_r9igjsGon-575" vertex="1">
          <mxGeometry x="18.8841586377977" y="20" width="146.35222944293218" height="86.99999999999997" as="geometry" />
        </mxCell>
        <mxCell id="rH-5OL1kYu_r9igjsGon-554" value="" style="ellipse;whiteSpace=wrap;html=1;fillColor=#E1D5E7;strokeColor=#A680B8;movable=1;resizable=1;rotatable=1;deletable=1;editable=1;locked=0;connectable=1;fontColor=#242424;container=0;" parent="rH-5OL1kYu_r9igjsGon-575" vertex="1">
          <mxGeometry x="128.1762267540519" y="35.83765679725229" width="28.326237956696545" height="28.013763711658378" as="geometry" />
        </mxCell>
        <mxCell id="rH-5OL1kYu_r9igjsGon-555" value="" style="ellipse;whiteSpace=wrap;html=1;fillColor=#E1D5E7;strokeColor=#A680B8;movable=1;resizable=1;rotatable=1;deletable=1;editable=1;locked=0;connectable=1;fontColor=#242424;container=0;" parent="rH-5OL1kYu_r9igjsGon-575" vertex="1">
          <mxGeometry x="78.13320636388798" y="35.83765679725229" width="28.326237956696545" height="28.013763711658378" as="geometry" />
        </mxCell>
        <mxCell id="rH-5OL1kYu_r9igjsGon-556" value="" style="ellipse;whiteSpace=wrap;html=1;fillColor=#E1D5E7;strokeColor=#A680B8;movable=1;resizable=1;rotatable=1;deletable=1;editable=1;locked=0;connectable=1;fontColor=#242424;container=0;" parent="rH-5OL1kYu_r9igjsGon-575" vertex="1">
          <mxGeometry x="28.090185973724076" y="35.83765679725229" width="28.326237956696545" height="28.013763711658378" as="geometry" />
        </mxCell>
        <mxCell id="rH-5OL1kYu_r9igjsGon-557" style="rounded=0;orthogonalLoop=1;jettySize=auto;html=1;exitX=0.5;exitY=1;exitDx=0;exitDy=0;entryX=0.5;entryY=0;entryDx=0;entryDy=0;dashed=1;endArrow=classicThin;endFill=1;movable=1;resizable=1;rotatable=1;deletable=1;editable=1;locked=0;connectable=1;fontColor=#242424;" parent="rH-5OL1kYu_r9igjsGon-575" source="rH-5OL1kYu_r9igjsGon-556" edge="1">
          <mxGeometry relative="1" as="geometry">
            <mxPoint x="70.5795429087689" y="98.40172908662271" as="targetPoint" />
          </mxGeometry>
        </mxCell>
        <mxCell id="rH-5OL1kYu_r9igjsGon-558" style="rounded=0;orthogonalLoop=1;jettySize=auto;html=1;exitX=0.5;exitY=1;exitDx=0;exitDy=0;entryX=0.5;entryY=0;entryDx=0;entryDy=0;dashed=1;endArrow=classicThin;endFill=1;movable=1;resizable=1;rotatable=1;deletable=1;editable=1;locked=0;connectable=1;fontColor=#242424;" parent="rH-5OL1kYu_r9igjsGon-575" source="rH-5OL1kYu_r9igjsGon-554" edge="1">
          <mxGeometry relative="1" as="geometry">
            <mxPoint x="70.5795429087689" y="98.40172908662271" as="targetPoint" />
          </mxGeometry>
        </mxCell>
        <mxCell id="rH-5OL1kYu_r9igjsGon-559" style="rounded=0;orthogonalLoop=1;jettySize=auto;html=1;exitX=0.5;exitY=1;exitDx=0;exitDy=0;entryX=0.5;entryY=0;entryDx=0;entryDy=0;dashed=1;endArrow=classicThin;endFill=1;movable=1;resizable=1;rotatable=1;deletable=1;editable=1;locked=0;connectable=1;fontColor=#242424;" parent="rH-5OL1kYu_r9igjsGon-575" source="rH-5OL1kYu_r9igjsGon-555" edge="1">
          <mxGeometry relative="1" as="geometry">
            <mxPoint x="70.5795429087689" y="98.40172908662271" as="targetPoint" />
          </mxGeometry>
        </mxCell>
        <mxCell id="rH-5OL1kYu_r9igjsGon-560" style="rounded=0;orthogonalLoop=1;jettySize=auto;html=1;exitX=0.5;exitY=1;exitDx=0;exitDy=0;entryX=0.5;entryY=0;entryDx=0;entryDy=0;dashed=1;endArrow=classicThin;endFill=1;movable=1;resizable=1;rotatable=1;deletable=1;editable=1;locked=0;connectable=1;fontColor=#242424;" parent="rH-5OL1kYu_r9igjsGon-575" source="rH-5OL1kYu_r9igjsGon-556" edge="1">
          <mxGeometry relative="1" as="geometry">
            <mxPoint x="114.0131077757036" y="98.40172908662271" as="targetPoint" />
          </mxGeometry>
        </mxCell>
        <mxCell id="rH-5OL1kYu_r9igjsGon-561" style="rounded=0;orthogonalLoop=1;jettySize=auto;html=1;exitX=0.5;exitY=1;exitDx=0;exitDy=0;entryX=0.5;entryY=0;entryDx=0;entryDy=0;dashed=1;endArrow=classicThin;endFill=1;movable=1;resizable=1;rotatable=1;deletable=1;editable=1;locked=0;connectable=1;fontColor=#242424;" parent="rH-5OL1kYu_r9igjsGon-575" source="rH-5OL1kYu_r9igjsGon-555" edge="1">
          <mxGeometry relative="1" as="geometry">
            <mxPoint x="114.0131077757036" y="98.40172908662271" as="targetPoint" />
          </mxGeometry>
        </mxCell>
        <mxCell id="rH-5OL1kYu_r9igjsGon-562" style="rounded=0;orthogonalLoop=1;jettySize=auto;html=1;exitX=0.5;exitY=1;exitDx=0;exitDy=0;entryX=0.5;entryY=0;entryDx=0;entryDy=0;dashed=1;endArrow=classicThin;endFill=1;movable=1;resizable=1;rotatable=1;deletable=1;editable=1;locked=0;connectable=1;fontColor=#242424;" parent="rH-5OL1kYu_r9igjsGon-575" source="rH-5OL1kYu_r9igjsGon-554" edge="1">
          <mxGeometry relative="1" as="geometry">
            <mxPoint x="114.0131077757036" y="98.40172908662271" as="targetPoint" />
          </mxGeometry>
        </mxCell>
        <mxCell id="rH-5OL1kYu_r9igjsGon-564" value="" style="rounded=1;whiteSpace=wrap;html=1;fillColor=#F7F7F7;strokeColor=#CCCCCC;movable=1;resizable=1;rotatable=1;deletable=1;editable=1;locked=0;connectable=1;fontColor=#242424;container=0;shadow=1;" parent="rH-5OL1kYu_r9igjsGon-575" vertex="1">
          <mxGeometry x="28.32623795669655" y="30" width="146.35222944293218" height="86.99999999999997" as="geometry" />
        </mxCell>
        <mxCell id="rH-5OL1kYu_r9igjsGon-565" value="" style="ellipse;whiteSpace=wrap;html=1;fillColor=#E1D5E7;strokeColor=#A680B8;movable=1;resizable=1;rotatable=1;deletable=1;editable=1;locked=0;connectable=1;fontColor=#242424;container=0;" parent="rH-5OL1kYu_r9igjsGon-575" vertex="1">
          <mxGeometry x="137.61830607295073" y="45.83765679725229" width="28.326237956696545" height="28.013763711658378" as="geometry" />
        </mxCell>
        <mxCell id="rH-5OL1kYu_r9igjsGon-566" value="" style="ellipse;whiteSpace=wrap;html=1;fillColor=#E1D5E7;strokeColor=#A680B8;movable=1;resizable=1;rotatable=1;deletable=1;editable=1;locked=0;connectable=1;fontColor=#242424;container=0;" parent="rH-5OL1kYu_r9igjsGon-575" vertex="1">
          <mxGeometry x="87.57528568278683" y="45.83765679725229" width="28.326237956696545" height="28.013763711658378" as="geometry" />
        </mxCell>
        <mxCell id="rH-5OL1kYu_r9igjsGon-567" value="" style="ellipse;whiteSpace=wrap;html=1;fillColor=#E1D5E7;strokeColor=#A680B8;movable=1;resizable=1;rotatable=1;deletable=1;editable=1;locked=0;connectable=1;fontColor=#242424;container=0;" parent="rH-5OL1kYu_r9igjsGon-575" vertex="1">
          <mxGeometry x="37.532265292622924" y="45.83765679725229" width="28.326237956696545" height="28.013763711658378" as="geometry" />
        </mxCell>
        <mxCell id="rH-5OL1kYu_r9igjsGon-568" style="rounded=0;orthogonalLoop=1;jettySize=auto;html=1;exitX=0.5;exitY=1;exitDx=0;exitDy=0;entryX=0.5;entryY=0;entryDx=0;entryDy=0;dashed=1;endArrow=classicThin;endFill=1;movable=1;resizable=1;rotatable=1;deletable=1;editable=1;locked=0;connectable=1;fontColor=#242424;" parent="rH-5OL1kYu_r9igjsGon-575" source="rH-5OL1kYu_r9igjsGon-567" edge="1">
          <mxGeometry relative="1" as="geometry">
            <mxPoint x="80.02162222766775" y="108.40172908662271" as="targetPoint" />
          </mxGeometry>
        </mxCell>
        <mxCell id="rH-5OL1kYu_r9igjsGon-569" style="rounded=0;orthogonalLoop=1;jettySize=auto;html=1;exitX=0.5;exitY=1;exitDx=0;exitDy=0;entryX=0.5;entryY=0;entryDx=0;entryDy=0;dashed=1;endArrow=classicThin;endFill=1;movable=1;resizable=1;rotatable=1;deletable=1;editable=1;locked=0;connectable=1;fontColor=#242424;" parent="rH-5OL1kYu_r9igjsGon-575" source="rH-5OL1kYu_r9igjsGon-565" edge="1">
          <mxGeometry relative="1" as="geometry">
            <mxPoint x="80.02162222766775" y="108.40172908662271" as="targetPoint" />
          </mxGeometry>
        </mxCell>
        <mxCell id="rH-5OL1kYu_r9igjsGon-570" style="rounded=0;orthogonalLoop=1;jettySize=auto;html=1;exitX=0.5;exitY=1;exitDx=0;exitDy=0;entryX=0.5;entryY=0;entryDx=0;entryDy=0;dashed=1;endArrow=classicThin;endFill=1;movable=1;resizable=1;rotatable=1;deletable=1;editable=1;locked=0;connectable=1;fontColor=#242424;" parent="rH-5OL1kYu_r9igjsGon-575" source="rH-5OL1kYu_r9igjsGon-566" edge="1">
          <mxGeometry relative="1" as="geometry">
            <mxPoint x="80.02162222766775" y="108.40172908662271" as="targetPoint" />
          </mxGeometry>
        </mxCell>
        <mxCell id="rH-5OL1kYu_r9igjsGon-571" style="rounded=0;orthogonalLoop=1;jettySize=auto;html=1;exitX=0.5;exitY=1;exitDx=0;exitDy=0;entryX=0.5;entryY=0;entryDx=0;entryDy=0;dashed=1;endArrow=classicThin;endFill=1;movable=1;resizable=1;rotatable=1;deletable=1;editable=1;locked=0;connectable=1;fontColor=#242424;" parent="rH-5OL1kYu_r9igjsGon-575" source="rH-5OL1kYu_r9igjsGon-567" edge="1">
          <mxGeometry relative="1" as="geometry">
            <mxPoint x="123.45518709460245" y="108.40172908662271" as="targetPoint" />
          </mxGeometry>
        </mxCell>
        <mxCell id="rH-5OL1kYu_r9igjsGon-572" style="rounded=0;orthogonalLoop=1;jettySize=auto;html=1;exitX=0.5;exitY=1;exitDx=0;exitDy=0;entryX=0.5;entryY=0;entryDx=0;entryDy=0;dashed=1;endArrow=classicThin;endFill=1;movable=1;resizable=1;rotatable=1;deletable=1;editable=1;locked=0;connectable=1;fontColor=#242424;" parent="rH-5OL1kYu_r9igjsGon-575" source="rH-5OL1kYu_r9igjsGon-566" edge="1">
          <mxGeometry relative="1" as="geometry">
            <mxPoint x="123.45518709460245" y="108.40172908662271" as="targetPoint" />
          </mxGeometry>
        </mxCell>
        <mxCell id="rH-5OL1kYu_r9igjsGon-573" style="rounded=0;orthogonalLoop=1;jettySize=auto;html=1;exitX=0.5;exitY=1;exitDx=0;exitDy=0;entryX=0.5;entryY=0;entryDx=0;entryDy=0;dashed=1;endArrow=classicThin;endFill=1;movable=1;resizable=1;rotatable=1;deletable=1;editable=1;locked=0;connectable=1;fontColor=#242424;" parent="rH-5OL1kYu_r9igjsGon-575" source="rH-5OL1kYu_r9igjsGon-565" edge="1">
          <mxGeometry relative="1" as="geometry">
            <mxPoint x="123.45518709460245" y="108.40172908662271" as="targetPoint" />
          </mxGeometry>
        </mxCell>
        <mxCell id="rH-5OL1kYu_r9igjsGon-237" value="$$j$$" style="text;html=1;align=center;verticalAlign=middle;resizable=0;points=[];autosize=1;strokeColor=none;fillColor=none;fontSize=18;fontFamily=Times New Roman;container=0;fontColor=#242424;" parent="rH-5OL1kYu_r9igjsGon-575" vertex="1">
          <mxGeometry x="128.17173201849678" y="82.99894736842111" width="59" height="34" as="geometry" />
        </mxCell>
        <mxCell id="rH-5OL1kYu_r9igjsGon-612" value="" style="group" parent="1" vertex="1" connectable="0">
          <mxGeometry x="131.50000000000003" y="-748" width="169.08999999999997" height="131.21000000000004" as="geometry" />
        </mxCell>
        <mxCell id="rH-5OL1kYu_r9igjsGon-218" value="" style="group" parent="rH-5OL1kYu_r9igjsGon-612" vertex="1" connectable="0">
          <mxGeometry width="155" height="131.21000000000004" as="geometry" />
        </mxCell>
        <mxCell id="ipxWhFgHdUj-HXUA2bHc-221" value="" style="rounded=1;whiteSpace=wrap;html=1;fillColor=#F7F7F7;strokeColor=#CCCCCC;movable=1;resizable=1;rotatable=1;deletable=1;editable=1;locked=0;connectable=1;container=0;fontColor=#242424;shadow=1;" parent="rH-5OL1kYu_r9igjsGon-218" vertex="1">
          <mxGeometry y="44.21" width="155" height="87" as="geometry" />
        </mxCell>
        <mxCell id="ipxWhFgHdUj-HXUA2bHc-301" style="rounded=0;orthogonalLoop=1;jettySize=auto;html=1;exitX=0.5;exitY=1;exitDx=0;exitDy=0;entryX=0.5;entryY=0;entryDx=0;entryDy=0;dashed=1;endArrow=classicThin;endFill=1;movable=1;resizable=1;rotatable=1;deletable=1;editable=1;locked=0;connectable=1;fontColor=#242424;" parent="rH-5OL1kYu_r9igjsGon-218" target="ipxWhFgHdUj-HXUA2bHc-307" edge="1">
          <mxGeometry relative="1" as="geometry">
            <mxPoint x="24.75" y="56.32469763471613" as="sourcePoint" />
          </mxGeometry>
        </mxCell>
        <mxCell id="ipxWhFgHdUj-HXUA2bHc-302" style="rounded=0;orthogonalLoop=1;jettySize=auto;html=1;exitX=0.5;exitY=1;exitDx=0;exitDy=0;entryX=0.5;entryY=0;entryDx=0;entryDy=0;dashed=1;endArrow=classicThin;endFill=1;movable=1;resizable=1;rotatable=1;deletable=1;editable=1;locked=0;connectable=1;fontColor=#242424;" parent="rH-5OL1kYu_r9igjsGon-218" target="ipxWhFgHdUj-HXUA2bHc-308" edge="1">
          <mxGeometry relative="1" as="geometry">
            <mxPoint x="24.75" y="56.32469763471613" as="sourcePoint" />
          </mxGeometry>
        </mxCell>
        <mxCell id="ipxWhFgHdUj-HXUA2bHc-303" style="rounded=0;orthogonalLoop=1;jettySize=auto;html=1;exitX=0.5;exitY=1;exitDx=0;exitDy=0;entryX=0.5;entryY=0;entryDx=0;entryDy=0;dashed=1;endArrow=classicThin;endFill=1;movable=1;resizable=1;rotatable=1;deletable=1;editable=1;locked=0;connectable=1;fontColor=#242424;" parent="rH-5OL1kYu_r9igjsGon-218" target="ipxWhFgHdUj-HXUA2bHc-307" edge="1">
          <mxGeometry relative="1" as="geometry">
            <mxPoint x="77.75" y="56.32469763471613" as="sourcePoint" />
          </mxGeometry>
        </mxCell>
        <mxCell id="ipxWhFgHdUj-HXUA2bHc-304" style="rounded=0;orthogonalLoop=1;jettySize=auto;html=1;exitX=0.5;exitY=1;exitDx=0;exitDy=0;entryX=0.5;entryY=0;entryDx=0;entryDy=0;dashed=1;endArrow=classicThin;endFill=1;movable=1;resizable=1;rotatable=1;deletable=1;editable=1;locked=0;connectable=1;fontColor=#242424;" parent="rH-5OL1kYu_r9igjsGon-218" target="ipxWhFgHdUj-HXUA2bHc-308" edge="1">
          <mxGeometry relative="1" as="geometry">
            <mxPoint x="77.75" y="56.32469763471613" as="sourcePoint" />
          </mxGeometry>
        </mxCell>
        <mxCell id="ipxWhFgHdUj-HXUA2bHc-305" style="rounded=0;orthogonalLoop=1;jettySize=auto;html=1;exitX=0.5;exitY=1;exitDx=0;exitDy=0;entryX=0.5;entryY=0;entryDx=0;entryDy=0;dashed=1;endArrow=classicThin;endFill=1;movable=1;resizable=1;rotatable=1;deletable=1;editable=1;locked=0;connectable=1;fontColor=#242424;" parent="rH-5OL1kYu_r9igjsGon-218" target="ipxWhFgHdUj-HXUA2bHc-307" edge="1">
          <mxGeometry relative="1" as="geometry">
            <mxPoint x="130.75" y="56.32469763471613" as="sourcePoint" />
          </mxGeometry>
        </mxCell>
        <mxCell id="ipxWhFgHdUj-HXUA2bHc-306" style="rounded=0;orthogonalLoop=1;jettySize=auto;html=1;exitX=0.5;exitY=1;exitDx=0;exitDy=0;entryX=0.5;entryY=0;entryDx=0;entryDy=0;dashed=1;endArrow=classicThin;endFill=1;movable=1;resizable=1;rotatable=1;deletable=1;editable=1;locked=0;connectable=1;fontColor=#242424;" parent="rH-5OL1kYu_r9igjsGon-218" target="ipxWhFgHdUj-HXUA2bHc-308" edge="1">
          <mxGeometry relative="1" as="geometry">
            <mxPoint x="130.75" y="56.32469763471613" as="sourcePoint" />
          </mxGeometry>
        </mxCell>
        <mxCell id="ipxWhFgHdUj-HXUA2bHc-307" value="" style="ellipse;whiteSpace=wrap;html=1;fillColor=#CCE5FF;strokeColor=#66B2FF;movable=1;resizable=1;rotatable=1;deletable=1;editable=1;locked=0;connectable=1;container=0;fontColor=#242424;" parent="rH-5OL1kYu_r9igjsGon-218" vertex="1">
          <mxGeometry x="39.75" y="92.8982258878712" width="30" height="29.654212097152623" as="geometry" />
        </mxCell>
        <mxCell id="ipxWhFgHdUj-HXUA2bHc-308" value="" style="ellipse;whiteSpace=wrap;html=1;fillColor=#CCE5FF;strokeColor=#66B2FF;movable=1;resizable=1;rotatable=1;deletable=1;editable=1;locked=0;connectable=1;container=0;fontColor=#242424;" parent="rH-5OL1kYu_r9igjsGon-218" vertex="1">
          <mxGeometry x="85.75" y="92.8982258878712" width="30" height="29.654212097152623" as="geometry" />
        </mxCell>
        <mxCell id="rH-5OL1kYu_r9igjsGon-577" value="$$i$$" style="text;html=1;align=center;verticalAlign=middle;resizable=0;points=[];autosize=1;strokeColor=none;fillColor=none;fontSize=18;" parent="rH-5OL1kYu_r9igjsGon-612" vertex="1">
          <mxGeometry x="107.08999999999997" y="97.21000000000004" width="62" height="34" as="geometry" />
        </mxCell>
        <mxCell id="rH-5OL1kYu_r9igjsGon-613" style="edgeStyle=orthogonalEdgeStyle;rounded=0;orthogonalLoop=1;jettySize=auto;html=1;entryX=0.5;entryY=1;entryDx=0;entryDy=0;" parent="1" source="rH-5OL1kYu_r9igjsGon-601" target="rH-5OL1kYu_r9igjsGon-391" edge="1">
          <mxGeometry relative="1" as="geometry">
            <Array as="points">
              <mxPoint x="851" y="-580" />
              <mxPoint x="463" y="-580" />
            </Array>
          </mxGeometry>
        </mxCell>
        <mxCell id="rH-5OL1kYu_r9igjsGon-520" value="" style="html=1;shadow=0;dashed=0;align=center;verticalAlign=middle;shape=mxgraph.arrows2.stylisedArrow;dy=0.76;dx=18.55;notch=7.74;feather=0.49;rotation=90;aspect=fixed;fillColor=#FFF2CC;strokeColor=#FFCE9F;fontColor=#242424;" parent="1" vertex="1">
          <mxGeometry x="161.51999999999998" y="-777.97" width="46.96" height="30.98" as="geometry" />
        </mxCell>
        <mxCell id="rH-5OL1kYu_r9igjsGon-615" value="&lt;font face=&quot;Times New Roman&quot;&gt;Model Aggregation Module&lt;/font&gt;" style="text;html=1;align=center;verticalAlign=middle;resizable=0;points=[];autosize=1;strokeColor=none;fillColor=none;fontSize=24;fontFamily=Comic Sans MS;fontColor=#000000;fontStyle=1" parent="1" vertex="1">
          <mxGeometry x="384.5" y="-581" width="286" height="43" as="geometry" />
        </mxCell>
        <mxCell id="rH-5OL1kYu_r9igjsGon-684" style="edgeStyle=orthogonalEdgeStyle;rounded=0;orthogonalLoop=1;jettySize=auto;html=1;entryX=1;entryY=0.5;entryDx=0;entryDy=0;exitX=0.5;exitY=0;exitDx=0;exitDy=0;" parent="1" source="rH-5OL1kYu_r9igjsGon-331" target="ipxWhFgHdUj-HXUA2bHc-238" edge="1">
          <mxGeometry relative="1" as="geometry" />
        </mxCell>
        <mxCell id="rH-5OL1kYu_r9igjsGon-685" style="edgeStyle=orthogonalEdgeStyle;rounded=0;orthogonalLoop=1;jettySize=auto;html=1;exitX=0;exitY=1;exitDx=0;exitDy=0;entryX=0.75;entryY=0;entryDx=0;entryDy=0;dashed=1;dashPattern=8 8;" parent="1" edge="1">
          <mxGeometry relative="1" as="geometry">
            <mxPoint x="771.8262379566966" y="-765" as="sourcePoint" />
            <mxPoint x="483.2499999999998" y="-695" as="targetPoint" />
            <Array as="points">
              <mxPoint x="772" y="-762" />
              <mxPoint x="483" y="-762" />
            </Array>
          </mxGeometry>
        </mxCell>
        <mxCell id="rH-5OL1kYu_r9igjsGon-686" value="" style="html=1;shadow=0;dashed=0;align=center;verticalAlign=middle;shape=mxgraph.arrows2.stylisedArrow;dy=0.76;dx=18.55;notch=7.74;feather=0.49;rotation=90;aspect=fixed;fillColor=#D4E1F5;strokeColor=#7EA6E0;fontColor=#242424;" parent="1" vertex="1">
          <mxGeometry x="622.02" y="-888.98" width="46.96" height="30.98" as="geometry" />
        </mxCell>
        <mxCell id="rH-5OL1kYu_r9igjsGon-688" value="" style="html=1;shadow=0;dashed=0;align=center;verticalAlign=middle;shape=mxgraph.arrows2.stylisedArrow;dy=0.76;dx=18.55;notch=7.74;feather=0.49;rotation=90;aspect=fixed;fillColor=#D4E1F5;strokeColor=#7EA6E0;fontColor=#242424;" parent="1" vertex="1">
          <mxGeometry x="622.02" y="-748" width="46.96" height="30.98" as="geometry" />
        </mxCell>
        <mxCell id="ipxWhFgHdUj-HXUA2bHc-351" value="" style="rounded=1;whiteSpace=wrap;html=1;fillColor=#F7F7F7;strokeColor=#CCCCCC;movable=1;resizable=1;rotatable=1;deletable=1;editable=1;locked=0;connectable=1;fontColor=#242424;textShadow=0;labelBorderColor=none;shadow=1;" parent="1" vertex="1">
          <mxGeometry x="366.35" y="-990.89" width="151.326578978552" height="87" as="geometry" />
        </mxCell>
        <mxCell id="ipxWhFgHdUj-HXUA2bHc-352" style="rounded=0;orthogonalLoop=1;jettySize=auto;html=1;exitX=0.5;exitY=1;exitDx=0;exitDy=0;entryX=0.5;entryY=0;entryDx=0;entryDy=0;dashed=1;endArrow=classicThin;endFill=1;movable=1;resizable=1;rotatable=1;deletable=1;editable=1;locked=0;connectable=1;fontColor=#242424;" parent="1" source="ipxWhFgHdUj-HXUA2bHc-354" edge="1">
          <mxGeometry relative="1" as="geometry">
            <mxPoint x="419.80245289726275" y="-912.9917741121288" as="targetPoint" />
          </mxGeometry>
        </mxCell>
        <mxCell id="ipxWhFgHdUj-HXUA2bHc-353" style="rounded=0;orthogonalLoop=1;jettySize=auto;html=1;exitX=0.5;exitY=1;exitDx=0;exitDy=0;entryX=0.5;entryY=0;entryDx=0;entryDy=0;dashed=1;endArrow=classicThin;endFill=1;movable=1;resizable=1;rotatable=1;deletable=1;editable=1;locked=0;connectable=1;fontColor=#242424;" parent="1" source="ipxWhFgHdUj-HXUA2bHc-354" edge="1">
          <mxGeometry relative="1" as="geometry">
            <mxPoint x="464.71227633605884" y="-912.9917741121288" as="targetPoint" />
          </mxGeometry>
        </mxCell>
        <mxCell id="ipxWhFgHdUj-HXUA2bHc-354" value="" style="ellipse;whiteSpace=wrap;html=1;fillColor=#E1D5E7;strokeColor=#A680B8;movable=1;resizable=1;rotatable=1;deletable=1;editable=1;locked=0;connectable=1;fontColor=#242424;" parent="1" vertex="1">
          <mxGeometry x="375.8689299680057" y="-979.2195144624365" width="29.289015286171352" height="29.654212097152623" as="geometry" />
        </mxCell>
        <mxCell id="ipxWhFgHdUj-HXUA2bHc-355" style="rounded=0;orthogonalLoop=1;jettySize=auto;html=1;exitX=0.5;exitY=1;exitDx=0;exitDy=0;entryX=0.5;entryY=0;entryDx=0;entryDy=0;dashed=1;endArrow=classicThin;endFill=1;movable=1;resizable=1;rotatable=1;deletable=1;editable=1;locked=0;connectable=1;fontColor=#242424;" parent="1" source="ipxWhFgHdUj-HXUA2bHc-357" edge="1">
          <mxGeometry relative="1" as="geometry">
            <mxPoint x="419.80245289726275" y="-912.9917741121288" as="targetPoint" />
          </mxGeometry>
        </mxCell>
        <mxCell id="ipxWhFgHdUj-HXUA2bHc-356" style="rounded=0;orthogonalLoop=1;jettySize=auto;html=1;exitX=0.5;exitY=1;exitDx=0;exitDy=0;entryX=0.5;entryY=0;entryDx=0;entryDy=0;dashed=1;endArrow=classicThin;endFill=1;movable=1;resizable=1;rotatable=1;deletable=1;editable=1;locked=0;connectable=1;fontColor=#242424;" parent="1" source="ipxWhFgHdUj-HXUA2bHc-357" edge="1">
          <mxGeometry relative="1" as="geometry">
            <mxPoint x="464.71227633605884" y="-912.9917741121288" as="targetPoint" />
          </mxGeometry>
        </mxCell>
        <mxCell id="ipxWhFgHdUj-HXUA2bHc-357" value="" style="ellipse;whiteSpace=wrap;html=1;fillColor=#E1D5E7;strokeColor=#A680B8;movable=1;resizable=1;rotatable=1;deletable=1;editable=1;locked=0;connectable=1;fontColor=#242424;" parent="1" vertex="1">
          <mxGeometry x="427.6128569735751" y="-979.2195144624365" width="29.289015286171352" height="29.654212097152623" as="geometry" />
        </mxCell>
        <mxCell id="ipxWhFgHdUj-HXUA2bHc-358" style="rounded=0;orthogonalLoop=1;jettySize=auto;html=1;exitX=0.5;exitY=1;exitDx=0;exitDy=0;entryX=0.5;entryY=0;entryDx=0;entryDy=0;dashed=1;endArrow=classicThin;endFill=1;movable=1;resizable=1;rotatable=1;deletable=1;editable=1;locked=0;connectable=1;fontColor=#242424;" parent="1" source="ipxWhFgHdUj-HXUA2bHc-360" edge="1">
          <mxGeometry relative="1" as="geometry">
            <mxPoint x="419.80245289726275" y="-912.9917741121288" as="targetPoint" />
          </mxGeometry>
        </mxCell>
        <mxCell id="ipxWhFgHdUj-HXUA2bHc-359" style="rounded=0;orthogonalLoop=1;jettySize=auto;html=1;exitX=0.5;exitY=1;exitDx=0;exitDy=0;entryX=0.5;entryY=0;entryDx=0;entryDy=0;dashed=1;endArrow=classicThin;endFill=1;movable=1;resizable=1;rotatable=1;deletable=1;editable=1;locked=0;connectable=1;fontColor=#242424;" parent="1" source="ipxWhFgHdUj-HXUA2bHc-360" edge="1">
          <mxGeometry relative="1" as="geometry">
            <mxPoint x="464.71227633605884" y="-912.9917741121288" as="targetPoint" />
          </mxGeometry>
        </mxCell>
        <mxCell id="ipxWhFgHdUj-HXUA2bHc-360" value="" style="ellipse;whiteSpace=wrap;html=1;fillColor=#E1D5E7;strokeColor=#A680B8;movable=1;resizable=1;rotatable=1;deletable=1;editable=1;locked=0;connectable=1;fontColor=#242424;" parent="1" vertex="1">
          <mxGeometry x="479.35678397914455" y="-979.2195144624365" width="29.289015286171352" height="29.654212097152623" as="geometry" />
        </mxCell>
        <mxCell id="rH-5OL1kYu_r9igjsGon-522" value="$$i$$" style="text;html=1;align=center;verticalAlign=middle;resizable=0;points=[];autosize=1;strokeColor=none;fillColor=none;fontSize=18;" parent="1" vertex="1">
          <mxGeometry x="470.59936840857927" y="-937.89" width="62" height="34" as="geometry" />
        </mxCell>
        <mxCell id="rH-5OL1kYu_r9igjsGon-462" value="" style="rounded=1;whiteSpace=wrap;html=1;fillColor=#F7F7F7;strokeColor=#CCCCCC;movable=1;resizable=1;rotatable=1;deletable=1;editable=1;locked=0;connectable=1;fontColor=#242424;container=0;shadow=1;glass=0;" parent="1" vertex="1">
          <mxGeometry x="752.5" y="-727" width="136.05633802816902" height="83" as="geometry" />
        </mxCell>
        <mxCell id="rH-5OL1kYu_r9igjsGon-463" style="rounded=0;orthogonalLoop=1;jettySize=auto;html=1;exitX=0.5;exitY=1;exitDx=0;exitDy=0;entryX=0.5;entryY=0;entryDx=0;entryDy=0;dashed=1;endArrow=classicThin;endFill=1;movable=1;resizable=1;rotatable=1;deletable=1;editable=1;locked=0;connectable=1;fontColor=#242424;" parent="1" target="rH-5OL1kYu_r9igjsGon-469" edge="1">
          <mxGeometry relative="1" as="geometry">
            <mxPoint x="774.5339900614013" y="-710.3101560081186" as="sourcePoint" />
          </mxGeometry>
        </mxCell>
        <mxCell id="rH-5OL1kYu_r9igjsGon-464" style="rounded=0;orthogonalLoop=1;jettySize=auto;html=1;exitX=0.5;exitY=1;exitDx=0;exitDy=0;entryX=0.5;entryY=0;entryDx=0;entryDy=0;dashed=1;endArrow=classicThin;endFill=1;movable=1;resizable=1;rotatable=1;deletable=1;editable=1;locked=0;connectable=1;fontColor=#242424;" parent="1" target="rH-5OL1kYu_r9igjsGon-470" edge="1">
          <mxGeometry relative="1" as="geometry">
            <mxPoint x="774.5339900614013" y="-710.3101560081186" as="sourcePoint" />
          </mxGeometry>
        </mxCell>
        <mxCell id="rH-5OL1kYu_r9igjsGon-465" style="rounded=0;orthogonalLoop=1;jettySize=auto;html=1;exitX=0.5;exitY=1;exitDx=0;exitDy=0;entryX=0.5;entryY=0;entryDx=0;entryDy=0;dashed=1;endArrow=classicThin;endFill=1;movable=1;resizable=1;rotatable=1;deletable=1;editable=1;locked=0;connectable=1;fontColor=#242424;" parent="1" target="rH-5OL1kYu_r9igjsGon-469" edge="1">
          <mxGeometry relative="1" as="geometry">
            <mxPoint x="821.7210868355949" y="-710.3101560081186" as="sourcePoint" />
          </mxGeometry>
        </mxCell>
        <mxCell id="rH-5OL1kYu_r9igjsGon-466" style="rounded=0;orthogonalLoop=1;jettySize=auto;html=1;exitX=0.5;exitY=1;exitDx=0;exitDy=0;entryX=0.5;entryY=0;entryDx=0;entryDy=0;dashed=1;endArrow=classicThin;endFill=1;movable=1;resizable=1;rotatable=1;deletable=1;editable=1;locked=0;connectable=1;fontColor=#242424;" parent="1" target="rH-5OL1kYu_r9igjsGon-470" edge="1">
          <mxGeometry relative="1" as="geometry">
            <mxPoint x="821.7210868355949" y="-710.3101560081186" as="sourcePoint" />
          </mxGeometry>
        </mxCell>
        <mxCell id="rH-5OL1kYu_r9igjsGon-467" style="rounded=0;orthogonalLoop=1;jettySize=auto;html=1;exitX=0.5;exitY=1;exitDx=0;exitDy=0;entryX=0.5;entryY=0;entryDx=0;entryDy=0;dashed=1;endArrow=classicThin;endFill=1;movable=1;resizable=1;rotatable=1;deletable=1;editable=1;locked=0;connectable=1;fontColor=#242424;" parent="1" target="rH-5OL1kYu_r9igjsGon-469" edge="1">
          <mxGeometry relative="1" as="geometry">
            <mxPoint x="868.9081836097887" y="-710.3101560081186" as="sourcePoint" />
          </mxGeometry>
        </mxCell>
        <mxCell id="rH-5OL1kYu_r9igjsGon-468" style="rounded=0;orthogonalLoop=1;jettySize=auto;html=1;exitX=0.5;exitY=1;exitDx=0;exitDy=0;entryX=0.5;entryY=0;entryDx=0;entryDy=0;dashed=1;endArrow=classicThin;endFill=1;movable=1;resizable=1;rotatable=1;deletable=1;editable=1;locked=0;connectable=1;fontColor=#242424;" parent="1" target="rH-5OL1kYu_r9igjsGon-470" edge="1">
          <mxGeometry relative="1" as="geometry">
            <mxPoint x="868.9081836097887" y="-710.3101560081186" as="sourcePoint" />
          </mxGeometry>
        </mxCell>
        <mxCell id="rH-5OL1kYu_r9igjsGon-469" value="" style="ellipse;whiteSpace=wrap;html=1;fillColor=#CCE5FF;strokeColor=#66B2FF;movable=1;resizable=1;rotatable=1;deletable=1;editable=1;locked=0;connectable=1;fontColor=#242424;container=0;" parent="1" vertex="1">
          <mxGeometry x="787.8888287710787" y="-677.9205212011937" width="26.70967741935485" height="26.261866059668748" as="geometry" />
        </mxCell>
        <mxCell id="rH-5OL1kYu_r9igjsGon-470" value="" style="ellipse;whiteSpace=wrap;html=1;fillColor=#CCE5FF;strokeColor=#66B2FF;movable=1;resizable=1;rotatable=1;deletable=1;editable=1;locked=0;connectable=1;fontColor=#242424;container=0;" parent="1" vertex="1">
          <mxGeometry x="828.8436674807562" y="-677.9205212011937" width="26.70967741935485" height="26.261866059668748" as="geometry" />
        </mxCell>
        <mxCell id="rH-5OL1kYu_r9igjsGon-581" value="" style="rounded=1;whiteSpace=wrap;html=1;fillColor=#F7F7F7;strokeColor=#CCCCCC;movable=1;resizable=1;rotatable=1;deletable=1;editable=1;locked=0;connectable=1;fontColor=#242424;container=0;shadow=1;glass=0;" parent="1" vertex="1">
          <mxGeometry x="762.5" y="-717" width="136.05633802816902" height="83" as="geometry" />
        </mxCell>
        <mxCell id="rH-5OL1kYu_r9igjsGon-582" style="rounded=0;orthogonalLoop=1;jettySize=auto;html=1;exitX=0.5;exitY=1;exitDx=0;exitDy=0;entryX=0.5;entryY=0;entryDx=0;entryDy=0;dashed=1;endArrow=classicThin;endFill=1;movable=1;resizable=1;rotatable=1;deletable=1;editable=1;locked=0;connectable=1;fontColor=#242424;" parent="1" target="rH-5OL1kYu_r9igjsGon-588" edge="1">
          <mxGeometry relative="1" as="geometry">
            <mxPoint x="784.5339900614013" y="-700.3101560081186" as="sourcePoint" />
          </mxGeometry>
        </mxCell>
        <mxCell id="rH-5OL1kYu_r9igjsGon-583" style="rounded=0;orthogonalLoop=1;jettySize=auto;html=1;exitX=0.5;exitY=1;exitDx=0;exitDy=0;entryX=0.5;entryY=0;entryDx=0;entryDy=0;dashed=1;endArrow=classicThin;endFill=1;movable=1;resizable=1;rotatable=1;deletable=1;editable=1;locked=0;connectable=1;fontColor=#242424;" parent="1" target="rH-5OL1kYu_r9igjsGon-589" edge="1">
          <mxGeometry relative="1" as="geometry">
            <mxPoint x="784.5339900614013" y="-700.3101560081186" as="sourcePoint" />
          </mxGeometry>
        </mxCell>
        <mxCell id="rH-5OL1kYu_r9igjsGon-584" style="rounded=0;orthogonalLoop=1;jettySize=auto;html=1;exitX=0.5;exitY=1;exitDx=0;exitDy=0;entryX=0.5;entryY=0;entryDx=0;entryDy=0;dashed=1;endArrow=classicThin;endFill=1;movable=1;resizable=1;rotatable=1;deletable=1;editable=1;locked=0;connectable=1;fontColor=#242424;" parent="1" target="rH-5OL1kYu_r9igjsGon-588" edge="1">
          <mxGeometry relative="1" as="geometry">
            <mxPoint x="831.7210868355949" y="-700.3101560081186" as="sourcePoint" />
          </mxGeometry>
        </mxCell>
        <mxCell id="rH-5OL1kYu_r9igjsGon-585" style="rounded=0;orthogonalLoop=1;jettySize=auto;html=1;exitX=0.5;exitY=1;exitDx=0;exitDy=0;entryX=0.5;entryY=0;entryDx=0;entryDy=0;dashed=1;endArrow=classicThin;endFill=1;movable=1;resizable=1;rotatable=1;deletable=1;editable=1;locked=0;connectable=1;fontColor=#242424;" parent="1" target="rH-5OL1kYu_r9igjsGon-589" edge="1">
          <mxGeometry relative="1" as="geometry">
            <mxPoint x="831.7210868355949" y="-700.3101560081186" as="sourcePoint" />
          </mxGeometry>
        </mxCell>
        <mxCell id="rH-5OL1kYu_r9igjsGon-586" style="rounded=0;orthogonalLoop=1;jettySize=auto;html=1;exitX=0.5;exitY=1;exitDx=0;exitDy=0;entryX=0.5;entryY=0;entryDx=0;entryDy=0;dashed=1;endArrow=classicThin;endFill=1;movable=1;resizable=1;rotatable=1;deletable=1;editable=1;locked=0;connectable=1;fontColor=#242424;" parent="1" target="rH-5OL1kYu_r9igjsGon-588" edge="1">
          <mxGeometry relative="1" as="geometry">
            <mxPoint x="878.9081836097887" y="-700.3101560081186" as="sourcePoint" />
          </mxGeometry>
        </mxCell>
        <mxCell id="rH-5OL1kYu_r9igjsGon-587" style="rounded=0;orthogonalLoop=1;jettySize=auto;html=1;exitX=0.5;exitY=1;exitDx=0;exitDy=0;entryX=0.5;entryY=0;entryDx=0;entryDy=0;dashed=1;endArrow=classicThin;endFill=1;movable=1;resizable=1;rotatable=1;deletable=1;editable=1;locked=0;connectable=1;fontColor=#242424;" parent="1" target="rH-5OL1kYu_r9igjsGon-589" edge="1">
          <mxGeometry relative="1" as="geometry">
            <mxPoint x="878.9081836097887" y="-700.3101560081186" as="sourcePoint" />
          </mxGeometry>
        </mxCell>
        <mxCell id="rH-5OL1kYu_r9igjsGon-588" value="" style="ellipse;whiteSpace=wrap;html=1;fillColor=#CCE5FF;strokeColor=#66B2FF;movable=1;resizable=1;rotatable=1;deletable=1;editable=1;locked=0;connectable=1;fontColor=#242424;container=0;" parent="1" vertex="1">
          <mxGeometry x="797.8888287710787" y="-667.9205212011937" width="26.70967741935485" height="26.261866059668748" as="geometry" />
        </mxCell>
        <mxCell id="rH-5OL1kYu_r9igjsGon-589" value="" style="ellipse;whiteSpace=wrap;html=1;fillColor=#CCE5FF;strokeColor=#66B2FF;movable=1;resizable=1;rotatable=1;deletable=1;editable=1;locked=0;connectable=1;fontColor=#242424;container=0;" parent="1" vertex="1">
          <mxGeometry x="838.8436674807562" y="-667.9205212011937" width="26.70967741935485" height="26.261866059668748" as="geometry" />
        </mxCell>
        <mxCell id="rH-5OL1kYu_r9igjsGon-591" value="" style="rounded=1;whiteSpace=wrap;html=1;fillColor=#F7F7F7;strokeColor=#CCCCCC;movable=1;resizable=1;rotatable=1;deletable=1;editable=1;locked=0;connectable=1;fontColor=#242424;container=0;shadow=1;glass=0;" parent="1" vertex="1">
          <mxGeometry x="772.5" y="-707" width="136.05633802816902" height="83" as="geometry" />
        </mxCell>
        <mxCell id="rH-5OL1kYu_r9igjsGon-592" style="rounded=0;orthogonalLoop=1;jettySize=auto;html=1;exitX=0.5;exitY=1;exitDx=0;exitDy=0;entryX=0.5;entryY=0;entryDx=0;entryDy=0;dashed=1;endArrow=classicThin;endFill=1;movable=1;resizable=1;rotatable=1;deletable=1;editable=1;locked=0;connectable=1;fontColor=#242424;" parent="1" target="rH-5OL1kYu_r9igjsGon-598" edge="1">
          <mxGeometry relative="1" as="geometry">
            <mxPoint x="794.5339900614013" y="-690.3101560081186" as="sourcePoint" />
          </mxGeometry>
        </mxCell>
        <mxCell id="rH-5OL1kYu_r9igjsGon-593" style="rounded=0;orthogonalLoop=1;jettySize=auto;html=1;exitX=0.5;exitY=1;exitDx=0;exitDy=0;entryX=0.5;entryY=0;entryDx=0;entryDy=0;dashed=1;endArrow=classicThin;endFill=1;movable=1;resizable=1;rotatable=1;deletable=1;editable=1;locked=0;connectable=1;fontColor=#242424;" parent="1" target="rH-5OL1kYu_r9igjsGon-599" edge="1">
          <mxGeometry relative="1" as="geometry">
            <mxPoint x="794.5339900614013" y="-690.3101560081186" as="sourcePoint" />
          </mxGeometry>
        </mxCell>
        <mxCell id="rH-5OL1kYu_r9igjsGon-594" style="rounded=0;orthogonalLoop=1;jettySize=auto;html=1;exitX=0.5;exitY=1;exitDx=0;exitDy=0;entryX=0.5;entryY=0;entryDx=0;entryDy=0;dashed=1;endArrow=classicThin;endFill=1;movable=1;resizable=1;rotatable=1;deletable=1;editable=1;locked=0;connectable=1;fontColor=#242424;" parent="1" target="rH-5OL1kYu_r9igjsGon-598" edge="1">
          <mxGeometry relative="1" as="geometry">
            <mxPoint x="841.7210868355949" y="-690.3101560081186" as="sourcePoint" />
          </mxGeometry>
        </mxCell>
        <mxCell id="rH-5OL1kYu_r9igjsGon-595" style="rounded=0;orthogonalLoop=1;jettySize=auto;html=1;exitX=0.5;exitY=1;exitDx=0;exitDy=0;entryX=0.5;entryY=0;entryDx=0;entryDy=0;dashed=1;endArrow=classicThin;endFill=1;movable=1;resizable=1;rotatable=1;deletable=1;editable=1;locked=0;connectable=1;fontColor=#242424;" parent="1" target="rH-5OL1kYu_r9igjsGon-599" edge="1">
          <mxGeometry relative="1" as="geometry">
            <mxPoint x="841.7210868355949" y="-690.3101560081186" as="sourcePoint" />
          </mxGeometry>
        </mxCell>
        <mxCell id="rH-5OL1kYu_r9igjsGon-596" style="rounded=0;orthogonalLoop=1;jettySize=auto;html=1;exitX=0.5;exitY=1;exitDx=0;exitDy=0;entryX=0.5;entryY=0;entryDx=0;entryDy=0;dashed=1;endArrow=classicThin;endFill=1;movable=1;resizable=1;rotatable=1;deletable=1;editable=1;locked=0;connectable=1;fontColor=#242424;" parent="1" target="rH-5OL1kYu_r9igjsGon-598" edge="1">
          <mxGeometry relative="1" as="geometry">
            <mxPoint x="888.9081836097887" y="-690.3101560081186" as="sourcePoint" />
          </mxGeometry>
        </mxCell>
        <mxCell id="rH-5OL1kYu_r9igjsGon-597" style="rounded=0;orthogonalLoop=1;jettySize=auto;html=1;exitX=0.5;exitY=1;exitDx=0;exitDy=0;entryX=0.5;entryY=0;entryDx=0;entryDy=0;dashed=1;endArrow=classicThin;endFill=1;movable=1;resizable=1;rotatable=1;deletable=1;editable=1;locked=0;connectable=1;fontColor=#242424;" parent="1" target="rH-5OL1kYu_r9igjsGon-599" edge="1">
          <mxGeometry relative="1" as="geometry">
            <mxPoint x="888.9081836097887" y="-690.3101560081186" as="sourcePoint" />
          </mxGeometry>
        </mxCell>
        <mxCell id="rH-5OL1kYu_r9igjsGon-598" value="" style="ellipse;whiteSpace=wrap;html=1;fillColor=#CCE5FF;strokeColor=#66B2FF;movable=1;resizable=1;rotatable=1;deletable=1;editable=1;locked=0;connectable=1;fontColor=#242424;container=0;" parent="1" vertex="1">
          <mxGeometry x="807.8888287710787" y="-657.9205212011937" width="26.70967741935485" height="26.261866059668748" as="geometry" />
        </mxCell>
        <mxCell id="rH-5OL1kYu_r9igjsGon-599" value="" style="ellipse;whiteSpace=wrap;html=1;fillColor=#CCE5FF;strokeColor=#66B2FF;movable=1;resizable=1;rotatable=1;deletable=1;editable=1;locked=0;connectable=1;fontColor=#242424;container=0;" parent="1" vertex="1">
          <mxGeometry x="848.8436674807562" y="-657.9205212011937" width="26.70967741935485" height="26.261866059668748" as="geometry" />
        </mxCell>
        <mxCell id="rH-5OL1kYu_r9igjsGon-601" value="" style="rounded=1;whiteSpace=wrap;html=1;fillColor=#F7F7F7;strokeColor=#CCCCCC;movable=1;resizable=1;rotatable=1;deletable=1;editable=1;locked=0;connectable=1;fontColor=#242424;container=0;shadow=1;glass=0;" parent="1" vertex="1">
          <mxGeometry x="782.5" y="-697" width="136.05633802816902" height="83" as="geometry" />
        </mxCell>
        <mxCell id="rH-5OL1kYu_r9igjsGon-602" style="rounded=0;orthogonalLoop=1;jettySize=auto;html=1;exitX=0.5;exitY=1;exitDx=0;exitDy=0;entryX=0.5;entryY=0;entryDx=0;entryDy=0;dashed=1;endArrow=classicThin;endFill=1;movable=1;resizable=1;rotatable=1;deletable=1;editable=1;locked=0;connectable=1;fontColor=#242424;" parent="1" target="rH-5OL1kYu_r9igjsGon-608" edge="1">
          <mxGeometry relative="1" as="geometry">
            <mxPoint x="804.5339900614013" y="-680.3101560081186" as="sourcePoint" />
          </mxGeometry>
        </mxCell>
        <mxCell id="rH-5OL1kYu_r9igjsGon-603" style="rounded=0;orthogonalLoop=1;jettySize=auto;html=1;exitX=0.5;exitY=1;exitDx=0;exitDy=0;entryX=0.5;entryY=0;entryDx=0;entryDy=0;dashed=1;endArrow=classicThin;endFill=1;movable=1;resizable=1;rotatable=1;deletable=1;editable=1;locked=0;connectable=1;fontColor=#242424;" parent="1" target="rH-5OL1kYu_r9igjsGon-609" edge="1">
          <mxGeometry relative="1" as="geometry">
            <mxPoint x="804.5339900614013" y="-680.3101560081186" as="sourcePoint" />
          </mxGeometry>
        </mxCell>
        <mxCell id="rH-5OL1kYu_r9igjsGon-604" style="rounded=0;orthogonalLoop=1;jettySize=auto;html=1;exitX=0.5;exitY=1;exitDx=0;exitDy=0;entryX=0.5;entryY=0;entryDx=0;entryDy=0;dashed=1;endArrow=classicThin;endFill=1;movable=1;resizable=1;rotatable=1;deletable=1;editable=1;locked=0;connectable=1;fontColor=#242424;" parent="1" target="rH-5OL1kYu_r9igjsGon-608" edge="1">
          <mxGeometry relative="1" as="geometry">
            <mxPoint x="851.7210868355949" y="-680.3101560081186" as="sourcePoint" />
          </mxGeometry>
        </mxCell>
        <mxCell id="rH-5OL1kYu_r9igjsGon-605" style="rounded=0;orthogonalLoop=1;jettySize=auto;html=1;exitX=0.5;exitY=1;exitDx=0;exitDy=0;entryX=0.5;entryY=0;entryDx=0;entryDy=0;dashed=1;endArrow=classicThin;endFill=1;movable=1;resizable=1;rotatable=1;deletable=1;editable=1;locked=0;connectable=1;fontColor=#242424;" parent="1" target="rH-5OL1kYu_r9igjsGon-609" edge="1">
          <mxGeometry relative="1" as="geometry">
            <mxPoint x="851.7210868355949" y="-680.3101560081186" as="sourcePoint" />
          </mxGeometry>
        </mxCell>
        <mxCell id="rH-5OL1kYu_r9igjsGon-606" style="rounded=0;orthogonalLoop=1;jettySize=auto;html=1;exitX=0.5;exitY=1;exitDx=0;exitDy=0;entryX=0.5;entryY=0;entryDx=0;entryDy=0;dashed=1;endArrow=classicThin;endFill=1;movable=1;resizable=1;rotatable=1;deletable=1;editable=1;locked=0;connectable=1;fontColor=#242424;" parent="1" target="rH-5OL1kYu_r9igjsGon-608" edge="1">
          <mxGeometry relative="1" as="geometry">
            <mxPoint x="898.9081836097887" y="-680.3101560081186" as="sourcePoint" />
          </mxGeometry>
        </mxCell>
        <mxCell id="rH-5OL1kYu_r9igjsGon-607" style="rounded=0;orthogonalLoop=1;jettySize=auto;html=1;exitX=0.5;exitY=1;exitDx=0;exitDy=0;entryX=0.5;entryY=0;entryDx=0;entryDy=0;dashed=1;endArrow=classicThin;endFill=1;movable=1;resizable=1;rotatable=1;deletable=1;editable=1;locked=0;connectable=1;fontColor=#242424;" parent="1" target="rH-5OL1kYu_r9igjsGon-609" edge="1">
          <mxGeometry relative="1" as="geometry">
            <mxPoint x="898.9081836097887" y="-680.3101560081186" as="sourcePoint" />
          </mxGeometry>
        </mxCell>
        <mxCell id="rH-5OL1kYu_r9igjsGon-608" value="" style="ellipse;whiteSpace=wrap;html=1;fillColor=#CCE5FF;strokeColor=#66B2FF;movable=1;resizable=1;rotatable=1;deletable=1;editable=1;locked=0;connectable=1;fontColor=#242424;container=0;" parent="1" vertex="1">
          <mxGeometry x="817.8888287710787" y="-647.9205212011937" width="26.70967741935485" height="26.261866059668748" as="geometry" />
        </mxCell>
        <mxCell id="rH-5OL1kYu_r9igjsGon-609" value="" style="ellipse;whiteSpace=wrap;html=1;fillColor=#CCE5FF;strokeColor=#66B2FF;movable=1;resizable=1;rotatable=1;deletable=1;editable=1;locked=0;connectable=1;fontColor=#242424;container=0;" parent="1" vertex="1">
          <mxGeometry x="858.8436674807562" y="-647.9205212011937" width="26.70967741935485" height="26.261866059668748" as="geometry" />
        </mxCell>
        <mxCell id="rH-5OL1kYu_r9igjsGon-578" value="$$j$$" style="text;html=1;align=center;verticalAlign=middle;resizable=0;points=[];autosize=1;strokeColor=none;fillColor=none;fontSize=18;fontFamily=Times New Roman;container=0;fontColor=#242424;" parent="1" vertex="1">
          <mxGeometry x="874.5" y="-647.92" width="59" height="34" as="geometry" />
        </mxCell>
        <mxCell id="ipxWhFgHdUj-HXUA2bHc-224" value="" style="rounded=1;whiteSpace=wrap;html=1;fillColor=#F7F7F7;strokeColor=#CCCCCC;movable=1;resizable=1;rotatable=1;deletable=1;editable=1;locked=0;connectable=1;fontColor=#242424;container=0;shadow=1;" parent="1" vertex="1">
          <mxGeometry x="107.5" y="-958.9908326081652" width="155" height="153.21342916862187" as="geometry" />
        </mxCell>
        <mxCell id="ipxWhFgHdUj-HXUA2bHc-225" style="rounded=0;orthogonalLoop=1;jettySize=auto;html=1;exitX=0.5;exitY=1;exitDx=0;exitDy=0;entryX=0.5;entryY=0;entryDx=0;entryDy=0;dashed=1;endArrow=classicThin;endFill=1;movable=1;resizable=1;rotatable=1;deletable=1;editable=1;locked=0;connectable=1;fontColor=#242424;" parent="1" source="ipxWhFgHdUj-HXUA2bHc-227" target="ipxWhFgHdUj-HXUA2bHc-234" edge="1">
          <mxGeometry relative="1" as="geometry" />
        </mxCell>
        <mxCell id="ipxWhFgHdUj-HXUA2bHc-226" style="rounded=0;orthogonalLoop=1;jettySize=auto;html=1;exitX=0.5;exitY=1;exitDx=0;exitDy=0;entryX=0.5;entryY=0;entryDx=0;entryDy=0;dashed=1;endArrow=classicThin;endFill=1;movable=1;resizable=1;rotatable=1;deletable=1;editable=1;locked=0;connectable=1;fontColor=#242424;" parent="1" source="ipxWhFgHdUj-HXUA2bHc-227" target="ipxWhFgHdUj-HXUA2bHc-235" edge="1">
          <mxGeometry relative="1" as="geometry" />
        </mxCell>
        <mxCell id="ipxWhFgHdUj-HXUA2bHc-227" value="" style="ellipse;whiteSpace=wrap;html=1;fillColor=#E1D5E7;strokeColor=#A680B8;movable=1;resizable=1;rotatable=1;deletable=1;editable=1;locked=0;connectable=1;fontColor=#242424;container=0;" parent="1" vertex="1">
          <mxGeometry x="117.25" y="-910.3195144624364" width="30" height="29.654212097152623" as="geometry" />
        </mxCell>
        <mxCell id="ipxWhFgHdUj-HXUA2bHc-228" style="rounded=0;orthogonalLoop=1;jettySize=auto;html=1;exitX=0.5;exitY=1;exitDx=0;exitDy=0;entryX=0.5;entryY=0;entryDx=0;entryDy=0;dashed=1;endArrow=classicThin;endFill=1;movable=1;resizable=1;rotatable=1;deletable=1;editable=1;locked=0;connectable=1;fontColor=#242424;" parent="1" source="ipxWhFgHdUj-HXUA2bHc-230" target="ipxWhFgHdUj-HXUA2bHc-234" edge="1">
          <mxGeometry relative="1" as="geometry" />
        </mxCell>
        <mxCell id="ipxWhFgHdUj-HXUA2bHc-229" style="rounded=0;orthogonalLoop=1;jettySize=auto;html=1;exitX=0.5;exitY=1;exitDx=0;exitDy=0;entryX=0.5;entryY=0;entryDx=0;entryDy=0;dashed=1;endArrow=classicThin;endFill=1;movable=1;resizable=1;rotatable=1;deletable=1;editable=1;locked=0;connectable=1;fontColor=#242424;" parent="1" source="ipxWhFgHdUj-HXUA2bHc-230" target="ipxWhFgHdUj-HXUA2bHc-235" edge="1">
          <mxGeometry relative="1" as="geometry" />
        </mxCell>
        <mxCell id="ipxWhFgHdUj-HXUA2bHc-230" value="" style="ellipse;whiteSpace=wrap;html=1;fillColor=#E1D5E7;strokeColor=#A680B8;movable=1;resizable=1;rotatable=1;deletable=1;editable=1;locked=0;connectable=1;fontColor=#242424;container=0;" parent="1" vertex="1">
          <mxGeometry x="170.25" y="-910.3195144624364" width="30" height="29.654212097152623" as="geometry" />
        </mxCell>
        <mxCell id="ipxWhFgHdUj-HXUA2bHc-231" style="rounded=0;orthogonalLoop=1;jettySize=auto;html=1;exitX=0.5;exitY=1;exitDx=0;exitDy=0;entryX=0.5;entryY=0;entryDx=0;entryDy=0;dashed=1;endArrow=classicThin;endFill=1;movable=1;resizable=1;rotatable=1;deletable=1;editable=1;locked=0;connectable=1;fontColor=#242424;" parent="1" source="ipxWhFgHdUj-HXUA2bHc-233" target="ipxWhFgHdUj-HXUA2bHc-234" edge="1">
          <mxGeometry relative="1" as="geometry" />
        </mxCell>
        <mxCell id="ipxWhFgHdUj-HXUA2bHc-232" style="rounded=0;orthogonalLoop=1;jettySize=auto;html=1;exitX=0.5;exitY=1;exitDx=0;exitDy=0;entryX=0.5;entryY=0;entryDx=0;entryDy=0;dashed=1;endArrow=classicThin;endFill=1;movable=1;resizable=1;rotatable=1;deletable=1;editable=1;locked=0;connectable=1;fontColor=#242424;" parent="1" source="ipxWhFgHdUj-HXUA2bHc-233" target="ipxWhFgHdUj-HXUA2bHc-235" edge="1">
          <mxGeometry relative="1" as="geometry" />
        </mxCell>
        <mxCell id="ipxWhFgHdUj-HXUA2bHc-233" value="" style="ellipse;whiteSpace=wrap;html=1;fillColor=#E1D5E7;strokeColor=#A680B8;movable=1;resizable=1;rotatable=1;deletable=1;editable=1;locked=0;connectable=1;fontColor=#242424;container=0;" parent="1" vertex="1">
          <mxGeometry x="223.25" y="-910.3195144624364" width="30" height="29.654212097152623" as="geometry" />
        </mxCell>
        <mxCell id="ipxWhFgHdUj-HXUA2bHc-234" value="" style="ellipse;whiteSpace=wrap;html=1;fillColor=#CCE5FF;strokeColor=#66B2FF;movable=1;resizable=1;rotatable=1;deletable=1;editable=1;locked=0;connectable=1;fontColor=#242424;container=0;" parent="1" vertex="1">
          <mxGeometry x="147.25" y="-844.0917741121289" width="30" height="29.654212097152623" as="geometry" />
        </mxCell>
        <mxCell id="ipxWhFgHdUj-HXUA2bHc-235" value="" style="ellipse;whiteSpace=wrap;html=1;fillColor=#CCE5FF;strokeColor=#66B2FF;movable=1;resizable=1;rotatable=1;deletable=1;editable=1;locked=0;connectable=1;fontColor=#242424;container=0;" parent="1" vertex="1">
          <mxGeometry x="193.25" y="-844.0917741121289" width="30" height="29.654212097152623" as="geometry" />
        </mxCell>
        <mxCell id="rH-5OL1kYu_r9igjsGon-89" value="Local Model" style="text;html=1;align=center;verticalAlign=middle;resizable=0;points=[];autosize=1;strokeColor=none;fillColor=none;fontSize=24;fontFamily=Times New Roman;container=0;fontColor=#242424;" parent="1" vertex="1">
          <mxGeometry x="114.75" y="-954.2" width="141" height="41" as="geometry" />
        </mxCell>
        <mxCell id="rH-5OL1kYu_r9igjsGon-633" value="" style="group;fillColor=none;" parent="1" vertex="1" connectable="0">
          <mxGeometry x="978.5" y="-816.0008326081652" width="155" height="153.21342916862187" as="geometry" />
        </mxCell>
        <mxCell id="rH-5OL1kYu_r9igjsGon-617" value="" style="rounded=1;whiteSpace=wrap;html=1;fillColor=#F7F7F7;strokeColor=#CCCCCC;movable=1;resizable=1;rotatable=1;deletable=1;editable=1;locked=0;connectable=1;fontColor=#242424;container=0;shadow=1;" parent="rH-5OL1kYu_r9igjsGon-633" vertex="1">
          <mxGeometry width="155" height="153.21342916862187" as="geometry" />
        </mxCell>
        <mxCell id="rH-5OL1kYu_r9igjsGon-618" style="rounded=0;orthogonalLoop=1;jettySize=auto;html=1;exitX=0.5;exitY=1;exitDx=0;exitDy=0;entryX=0.5;entryY=0;entryDx=0;entryDy=0;dashed=1;endArrow=classicThin;endFill=1;movable=1;resizable=1;rotatable=1;deletable=1;editable=1;locked=0;connectable=1;fontColor=#242424;" parent="rH-5OL1kYu_r9igjsGon-633" source="rH-5OL1kYu_r9igjsGon-620" target="rH-5OL1kYu_r9igjsGon-627" edge="1">
          <mxGeometry relative="1" as="geometry" />
        </mxCell>
        <mxCell id="rH-5OL1kYu_r9igjsGon-619" style="rounded=0;orthogonalLoop=1;jettySize=auto;html=1;exitX=0.5;exitY=1;exitDx=0;exitDy=0;entryX=0.5;entryY=0;entryDx=0;entryDy=0;dashed=1;endArrow=classicThin;endFill=1;movable=1;resizable=1;rotatable=1;deletable=1;editable=1;locked=0;connectable=1;fontColor=#242424;" parent="rH-5OL1kYu_r9igjsGon-633" source="rH-5OL1kYu_r9igjsGon-620" target="rH-5OL1kYu_r9igjsGon-628" edge="1">
          <mxGeometry relative="1" as="geometry" />
        </mxCell>
        <mxCell id="rH-5OL1kYu_r9igjsGon-620" value="" style="ellipse;whiteSpace=wrap;html=1;fillColor=#E1D5E7;strokeColor=#A680B8;movable=1;resizable=1;rotatable=1;deletable=1;editable=1;locked=0;connectable=1;fontColor=#242424;container=0;" parent="rH-5OL1kYu_r9igjsGon-633" vertex="1">
          <mxGeometry x="9.75" y="48.67131814572889" width="30" height="29.654212097152623" as="geometry" />
        </mxCell>
        <mxCell id="rH-5OL1kYu_r9igjsGon-621" style="rounded=0;orthogonalLoop=1;jettySize=auto;html=1;exitX=0.5;exitY=1;exitDx=0;exitDy=0;entryX=0.5;entryY=0;entryDx=0;entryDy=0;dashed=1;endArrow=classicThin;endFill=1;movable=1;resizable=1;rotatable=1;deletable=1;editable=1;locked=0;connectable=1;fontColor=#242424;" parent="rH-5OL1kYu_r9igjsGon-633" source="rH-5OL1kYu_r9igjsGon-623" target="rH-5OL1kYu_r9igjsGon-627" edge="1">
          <mxGeometry relative="1" as="geometry" />
        </mxCell>
        <mxCell id="rH-5OL1kYu_r9igjsGon-622" style="rounded=0;orthogonalLoop=1;jettySize=auto;html=1;exitX=0.5;exitY=1;exitDx=0;exitDy=0;entryX=0.5;entryY=0;entryDx=0;entryDy=0;dashed=1;endArrow=classicThin;endFill=1;movable=1;resizable=1;rotatable=1;deletable=1;editable=1;locked=0;connectable=1;fontColor=#242424;" parent="rH-5OL1kYu_r9igjsGon-633" source="rH-5OL1kYu_r9igjsGon-623" target="rH-5OL1kYu_r9igjsGon-628" edge="1">
          <mxGeometry relative="1" as="geometry" />
        </mxCell>
        <mxCell id="rH-5OL1kYu_r9igjsGon-623" value="" style="ellipse;whiteSpace=wrap;html=1;fillColor=#E1D5E7;strokeColor=#A680B8;movable=1;resizable=1;rotatable=1;deletable=1;editable=1;locked=0;connectable=1;fontColor=#242424;container=0;" parent="rH-5OL1kYu_r9igjsGon-633" vertex="1">
          <mxGeometry x="62.75" y="48.67131814572889" width="30" height="29.654212097152623" as="geometry" />
        </mxCell>
        <mxCell id="rH-5OL1kYu_r9igjsGon-624" style="rounded=0;orthogonalLoop=1;jettySize=auto;html=1;exitX=0.5;exitY=1;exitDx=0;exitDy=0;entryX=0.5;entryY=0;entryDx=0;entryDy=0;dashed=1;endArrow=classicThin;endFill=1;movable=1;resizable=1;rotatable=1;deletable=1;editable=1;locked=0;connectable=1;fontColor=#242424;" parent="rH-5OL1kYu_r9igjsGon-633" source="rH-5OL1kYu_r9igjsGon-626" target="rH-5OL1kYu_r9igjsGon-627" edge="1">
          <mxGeometry relative="1" as="geometry" />
        </mxCell>
        <mxCell id="rH-5OL1kYu_r9igjsGon-625" style="rounded=0;orthogonalLoop=1;jettySize=auto;html=1;exitX=0.5;exitY=1;exitDx=0;exitDy=0;entryX=0.5;entryY=0;entryDx=0;entryDy=0;dashed=1;endArrow=classicThin;endFill=1;movable=1;resizable=1;rotatable=1;deletable=1;editable=1;locked=0;connectable=1;fontColor=#242424;" parent="rH-5OL1kYu_r9igjsGon-633" source="rH-5OL1kYu_r9igjsGon-626" target="rH-5OL1kYu_r9igjsGon-628" edge="1">
          <mxGeometry relative="1" as="geometry" />
        </mxCell>
        <mxCell id="rH-5OL1kYu_r9igjsGon-626" value="" style="ellipse;whiteSpace=wrap;html=1;fillColor=#E1D5E7;strokeColor=#A680B8;movable=1;resizable=1;rotatable=1;deletable=1;editable=1;locked=0;connectable=1;fontColor=#242424;container=0;" parent="rH-5OL1kYu_r9igjsGon-633" vertex="1">
          <mxGeometry x="115.75" y="48.67131814572889" width="30" height="29.654212097152623" as="geometry" />
        </mxCell>
        <mxCell id="rH-5OL1kYu_r9igjsGon-627" value="" style="ellipse;whiteSpace=wrap;html=1;fillColor=#CCE5FF;strokeColor=#66B2FF;movable=1;resizable=1;rotatable=1;deletable=1;editable=1;locked=0;connectable=1;fontColor=#242424;container=0;" parent="rH-5OL1kYu_r9igjsGon-633" vertex="1">
          <mxGeometry x="39.75" y="114.89905849603639" width="30" height="29.654212097152623" as="geometry" />
        </mxCell>
        <mxCell id="rH-5OL1kYu_r9igjsGon-628" value="" style="ellipse;whiteSpace=wrap;html=1;fillColor=#CCE5FF;strokeColor=#66B2FF;movable=1;resizable=1;rotatable=1;deletable=1;editable=1;locked=0;connectable=1;fontColor=#242424;container=0;" parent="rH-5OL1kYu_r9igjsGon-633" vertex="1">
          <mxGeometry x="85.75" y="114.89905849603639" width="30" height="29.654212097152623" as="geometry" />
        </mxCell>
        <mxCell id="rH-5OL1kYu_r9igjsGon-629" value="Local Model" style="text;html=1;align=center;verticalAlign=middle;resizable=0;points=[];autosize=1;strokeColor=none;fillColor=none;fontSize=24;fontFamily=Times New Roman;container=0;fontColor=#242424;" parent="rH-5OL1kYu_r9igjsGon-633" vertex="1">
          <mxGeometry x="7.25" y="4.79083260816526" width="141" height="41" as="geometry" />
        </mxCell>
        <mxCell id="rH-5OL1kYu_r9igjsGon-634" value="" style="group;fillColor=none;" parent="1" vertex="1" connectable="0">
          <mxGeometry x="988.5" y="-806.0008326081652" width="155" height="153.21342916862187" as="geometry" />
        </mxCell>
        <mxCell id="rH-5OL1kYu_r9igjsGon-635" value="" style="rounded=1;whiteSpace=wrap;html=1;fillColor=#F7F7F7;strokeColor=#CCCCCC;movable=1;resizable=1;rotatable=1;deletable=1;editable=1;locked=0;connectable=1;fontColor=#242424;container=0;shadow=1;" parent="rH-5OL1kYu_r9igjsGon-634" vertex="1">
          <mxGeometry width="155" height="153.21342916862187" as="geometry" />
        </mxCell>
        <mxCell id="rH-5OL1kYu_r9igjsGon-636" style="rounded=0;orthogonalLoop=1;jettySize=auto;html=1;exitX=0.5;exitY=1;exitDx=0;exitDy=0;entryX=0.5;entryY=0;entryDx=0;entryDy=0;dashed=1;endArrow=classicThin;endFill=1;movable=1;resizable=1;rotatable=1;deletable=1;editable=1;locked=0;connectable=1;fontColor=#242424;" parent="rH-5OL1kYu_r9igjsGon-634" source="rH-5OL1kYu_r9igjsGon-638" target="rH-5OL1kYu_r9igjsGon-645" edge="1">
          <mxGeometry relative="1" as="geometry" />
        </mxCell>
        <mxCell id="rH-5OL1kYu_r9igjsGon-637" style="rounded=0;orthogonalLoop=1;jettySize=auto;html=1;exitX=0.5;exitY=1;exitDx=0;exitDy=0;entryX=0.5;entryY=0;entryDx=0;entryDy=0;dashed=1;endArrow=classicThin;endFill=1;movable=1;resizable=1;rotatable=1;deletable=1;editable=1;locked=0;connectable=1;fontColor=#242424;" parent="rH-5OL1kYu_r9igjsGon-634" source="rH-5OL1kYu_r9igjsGon-638" target="rH-5OL1kYu_r9igjsGon-646" edge="1">
          <mxGeometry relative="1" as="geometry" />
        </mxCell>
        <mxCell id="rH-5OL1kYu_r9igjsGon-638" value="" style="ellipse;whiteSpace=wrap;html=1;fillColor=#E1D5E7;strokeColor=#A680B8;movable=1;resizable=1;rotatable=1;deletable=1;editable=1;locked=0;connectable=1;fontColor=#242424;container=0;" parent="rH-5OL1kYu_r9igjsGon-634" vertex="1">
          <mxGeometry x="9.75" y="48.67131814572889" width="30" height="29.654212097152623" as="geometry" />
        </mxCell>
        <mxCell id="rH-5OL1kYu_r9igjsGon-639" style="rounded=0;orthogonalLoop=1;jettySize=auto;html=1;exitX=0.5;exitY=1;exitDx=0;exitDy=0;entryX=0.5;entryY=0;entryDx=0;entryDy=0;dashed=1;endArrow=classicThin;endFill=1;movable=1;resizable=1;rotatable=1;deletable=1;editable=1;locked=0;connectable=1;fontColor=#242424;" parent="rH-5OL1kYu_r9igjsGon-634" source="rH-5OL1kYu_r9igjsGon-641" target="rH-5OL1kYu_r9igjsGon-645" edge="1">
          <mxGeometry relative="1" as="geometry" />
        </mxCell>
        <mxCell id="rH-5OL1kYu_r9igjsGon-640" style="rounded=0;orthogonalLoop=1;jettySize=auto;html=1;exitX=0.5;exitY=1;exitDx=0;exitDy=0;entryX=0.5;entryY=0;entryDx=0;entryDy=0;dashed=1;endArrow=classicThin;endFill=1;movable=1;resizable=1;rotatable=1;deletable=1;editable=1;locked=0;connectable=1;fontColor=#242424;" parent="rH-5OL1kYu_r9igjsGon-634" source="rH-5OL1kYu_r9igjsGon-641" target="rH-5OL1kYu_r9igjsGon-646" edge="1">
          <mxGeometry relative="1" as="geometry" />
        </mxCell>
        <mxCell id="rH-5OL1kYu_r9igjsGon-641" value="" style="ellipse;whiteSpace=wrap;html=1;fillColor=#E1D5E7;strokeColor=#A680B8;movable=1;resizable=1;rotatable=1;deletable=1;editable=1;locked=0;connectable=1;fontColor=#242424;container=0;" parent="rH-5OL1kYu_r9igjsGon-634" vertex="1">
          <mxGeometry x="62.75" y="48.67131814572889" width="30" height="29.654212097152623" as="geometry" />
        </mxCell>
        <mxCell id="rH-5OL1kYu_r9igjsGon-642" style="rounded=0;orthogonalLoop=1;jettySize=auto;html=1;exitX=0.5;exitY=1;exitDx=0;exitDy=0;entryX=0.5;entryY=0;entryDx=0;entryDy=0;dashed=1;endArrow=classicThin;endFill=1;movable=1;resizable=1;rotatable=1;deletable=1;editable=1;locked=0;connectable=1;fontColor=#242424;" parent="rH-5OL1kYu_r9igjsGon-634" source="rH-5OL1kYu_r9igjsGon-644" target="rH-5OL1kYu_r9igjsGon-645" edge="1">
          <mxGeometry relative="1" as="geometry" />
        </mxCell>
        <mxCell id="rH-5OL1kYu_r9igjsGon-643" style="rounded=0;orthogonalLoop=1;jettySize=auto;html=1;exitX=0.5;exitY=1;exitDx=0;exitDy=0;entryX=0.5;entryY=0;entryDx=0;entryDy=0;dashed=1;endArrow=classicThin;endFill=1;movable=1;resizable=1;rotatable=1;deletable=1;editable=1;locked=0;connectable=1;fontColor=#242424;" parent="rH-5OL1kYu_r9igjsGon-634" source="rH-5OL1kYu_r9igjsGon-644" target="rH-5OL1kYu_r9igjsGon-646" edge="1">
          <mxGeometry relative="1" as="geometry" />
        </mxCell>
        <mxCell id="rH-5OL1kYu_r9igjsGon-644" value="" style="ellipse;whiteSpace=wrap;html=1;fillColor=#E1D5E7;strokeColor=#A680B8;movable=1;resizable=1;rotatable=1;deletable=1;editable=1;locked=0;connectable=1;fontColor=#242424;container=0;" parent="rH-5OL1kYu_r9igjsGon-634" vertex="1">
          <mxGeometry x="115.75" y="48.67131814572889" width="30" height="29.654212097152623" as="geometry" />
        </mxCell>
        <mxCell id="rH-5OL1kYu_r9igjsGon-645" value="" style="ellipse;whiteSpace=wrap;html=1;fillColor=#CCE5FF;strokeColor=#66B2FF;movable=1;resizable=1;rotatable=1;deletable=1;editable=1;locked=0;connectable=1;fontColor=#242424;container=0;" parent="rH-5OL1kYu_r9igjsGon-634" vertex="1">
          <mxGeometry x="39.75" y="114.89905849603639" width="30" height="29.654212097152623" as="geometry" />
        </mxCell>
        <mxCell id="rH-5OL1kYu_r9igjsGon-646" value="" style="ellipse;whiteSpace=wrap;html=1;fillColor=#CCE5FF;strokeColor=#66B2FF;movable=1;resizable=1;rotatable=1;deletable=1;editable=1;locked=0;connectable=1;fontColor=#242424;container=0;" parent="rH-5OL1kYu_r9igjsGon-634" vertex="1">
          <mxGeometry x="85.75" y="114.89905849603639" width="30" height="29.654212097152623" as="geometry" />
        </mxCell>
        <mxCell id="rH-5OL1kYu_r9igjsGon-647" value="Local Model" style="text;html=1;align=center;verticalAlign=middle;resizable=0;points=[];autosize=1;strokeColor=none;fillColor=none;fontSize=24;fontFamily=Times New Roman;container=0;fontColor=#242424;" parent="rH-5OL1kYu_r9igjsGon-634" vertex="1">
          <mxGeometry x="7.25" y="4.79083260816526" width="141" height="41" as="geometry" />
        </mxCell>
        <mxCell id="rH-5OL1kYu_r9igjsGon-648" value="" style="group;fillColor=none;" parent="1" vertex="1" connectable="0">
          <mxGeometry x="998.5" y="-796.0008326081652" width="155" height="153.21342916862187" as="geometry" />
        </mxCell>
        <mxCell id="rH-5OL1kYu_r9igjsGon-649" value="" style="rounded=1;whiteSpace=wrap;html=1;fillColor=#F7F7F7;strokeColor=#CCCCCC;movable=1;resizable=1;rotatable=1;deletable=1;editable=1;locked=0;connectable=1;fontColor=#242424;container=0;shadow=1;" parent="rH-5OL1kYu_r9igjsGon-648" vertex="1">
          <mxGeometry width="155" height="153.21342916862187" as="geometry" />
        </mxCell>
        <mxCell id="rH-5OL1kYu_r9igjsGon-650" style="rounded=0;orthogonalLoop=1;jettySize=auto;html=1;exitX=0.5;exitY=1;exitDx=0;exitDy=0;entryX=0.5;entryY=0;entryDx=0;entryDy=0;dashed=1;endArrow=classicThin;endFill=1;movable=1;resizable=1;rotatable=1;deletable=1;editable=1;locked=0;connectable=1;fontColor=#242424;" parent="rH-5OL1kYu_r9igjsGon-648" source="rH-5OL1kYu_r9igjsGon-652" target="rH-5OL1kYu_r9igjsGon-659" edge="1">
          <mxGeometry relative="1" as="geometry" />
        </mxCell>
        <mxCell id="rH-5OL1kYu_r9igjsGon-651" style="rounded=0;orthogonalLoop=1;jettySize=auto;html=1;exitX=0.5;exitY=1;exitDx=0;exitDy=0;entryX=0.5;entryY=0;entryDx=0;entryDy=0;dashed=1;endArrow=classicThin;endFill=1;movable=1;resizable=1;rotatable=1;deletable=1;editable=1;locked=0;connectable=1;fontColor=#242424;" parent="rH-5OL1kYu_r9igjsGon-648" source="rH-5OL1kYu_r9igjsGon-652" target="rH-5OL1kYu_r9igjsGon-660" edge="1">
          <mxGeometry relative="1" as="geometry" />
        </mxCell>
        <mxCell id="rH-5OL1kYu_r9igjsGon-652" value="" style="ellipse;whiteSpace=wrap;html=1;fillColor=#E1D5E7;strokeColor=#A680B8;movable=1;resizable=1;rotatable=1;deletable=1;editable=1;locked=0;connectable=1;fontColor=#242424;container=0;" parent="rH-5OL1kYu_r9igjsGon-648" vertex="1">
          <mxGeometry x="9.75" y="48.67131814572889" width="30" height="29.654212097152623" as="geometry" />
        </mxCell>
        <mxCell id="rH-5OL1kYu_r9igjsGon-653" style="rounded=0;orthogonalLoop=1;jettySize=auto;html=1;exitX=0.5;exitY=1;exitDx=0;exitDy=0;entryX=0.5;entryY=0;entryDx=0;entryDy=0;dashed=1;endArrow=classicThin;endFill=1;movable=1;resizable=1;rotatable=1;deletable=1;editable=1;locked=0;connectable=1;fontColor=#242424;" parent="rH-5OL1kYu_r9igjsGon-648" source="rH-5OL1kYu_r9igjsGon-655" target="rH-5OL1kYu_r9igjsGon-659" edge="1">
          <mxGeometry relative="1" as="geometry" />
        </mxCell>
        <mxCell id="rH-5OL1kYu_r9igjsGon-654" style="rounded=0;orthogonalLoop=1;jettySize=auto;html=1;exitX=0.5;exitY=1;exitDx=0;exitDy=0;entryX=0.5;entryY=0;entryDx=0;entryDy=0;dashed=1;endArrow=classicThin;endFill=1;movable=1;resizable=1;rotatable=1;deletable=1;editable=1;locked=0;connectable=1;fontColor=#242424;" parent="rH-5OL1kYu_r9igjsGon-648" source="rH-5OL1kYu_r9igjsGon-655" target="rH-5OL1kYu_r9igjsGon-660" edge="1">
          <mxGeometry relative="1" as="geometry" />
        </mxCell>
        <mxCell id="rH-5OL1kYu_r9igjsGon-655" value="" style="ellipse;whiteSpace=wrap;html=1;fillColor=#E1D5E7;strokeColor=#A680B8;movable=1;resizable=1;rotatable=1;deletable=1;editable=1;locked=0;connectable=1;fontColor=#242424;container=0;" parent="rH-5OL1kYu_r9igjsGon-648" vertex="1">
          <mxGeometry x="62.75" y="48.67131814572889" width="30" height="29.654212097152623" as="geometry" />
        </mxCell>
        <mxCell id="rH-5OL1kYu_r9igjsGon-656" style="rounded=0;orthogonalLoop=1;jettySize=auto;html=1;exitX=0.5;exitY=1;exitDx=0;exitDy=0;entryX=0.5;entryY=0;entryDx=0;entryDy=0;dashed=1;endArrow=classicThin;endFill=1;movable=1;resizable=1;rotatable=1;deletable=1;editable=1;locked=0;connectable=1;fontColor=#242424;" parent="rH-5OL1kYu_r9igjsGon-648" source="rH-5OL1kYu_r9igjsGon-658" target="rH-5OL1kYu_r9igjsGon-659" edge="1">
          <mxGeometry relative="1" as="geometry" />
        </mxCell>
        <mxCell id="rH-5OL1kYu_r9igjsGon-657" style="rounded=0;orthogonalLoop=1;jettySize=auto;html=1;exitX=0.5;exitY=1;exitDx=0;exitDy=0;entryX=0.5;entryY=0;entryDx=0;entryDy=0;dashed=1;endArrow=classicThin;endFill=1;movable=1;resizable=1;rotatable=1;deletable=1;editable=1;locked=0;connectable=1;fontColor=#242424;" parent="rH-5OL1kYu_r9igjsGon-648" source="rH-5OL1kYu_r9igjsGon-658" target="rH-5OL1kYu_r9igjsGon-660" edge="1">
          <mxGeometry relative="1" as="geometry" />
        </mxCell>
        <mxCell id="rH-5OL1kYu_r9igjsGon-658" value="" style="ellipse;whiteSpace=wrap;html=1;fillColor=#E1D5E7;strokeColor=#A680B8;movable=1;resizable=1;rotatable=1;deletable=1;editable=1;locked=0;connectable=1;fontColor=#242424;container=0;" parent="rH-5OL1kYu_r9igjsGon-648" vertex="1">
          <mxGeometry x="115.75" y="48.67131814572889" width="30" height="29.654212097152623" as="geometry" />
        </mxCell>
        <mxCell id="rH-5OL1kYu_r9igjsGon-659" value="" style="ellipse;whiteSpace=wrap;html=1;fillColor=#CCE5FF;strokeColor=#66B2FF;movable=1;resizable=1;rotatable=1;deletable=1;editable=1;locked=0;connectable=1;fontColor=#242424;container=0;" parent="rH-5OL1kYu_r9igjsGon-648" vertex="1">
          <mxGeometry x="39.75" y="114.89905849603639" width="30" height="29.654212097152623" as="geometry" />
        </mxCell>
        <mxCell id="rH-5OL1kYu_r9igjsGon-660" value="" style="ellipse;whiteSpace=wrap;html=1;fillColor=#CCE5FF;strokeColor=#66B2FF;movable=1;resizable=1;rotatable=1;deletable=1;editable=1;locked=0;connectable=1;fontColor=#242424;container=0;" parent="rH-5OL1kYu_r9igjsGon-648" vertex="1">
          <mxGeometry x="85.75" y="114.89905849603639" width="30" height="29.654212097152623" as="geometry" />
        </mxCell>
        <mxCell id="rH-5OL1kYu_r9igjsGon-661" value="Local Model" style="text;html=1;align=center;verticalAlign=middle;resizable=0;points=[];autosize=1;strokeColor=none;fillColor=none;fontSize=24;fontFamily=Times New Roman;container=0;fontColor=#242424;" parent="rH-5OL1kYu_r9igjsGon-648" vertex="1">
          <mxGeometry x="7.25" y="4.79083260816526" width="141" height="41" as="geometry" />
        </mxCell>
        <mxCell id="rH-5OL1kYu_r9igjsGon-662" value="" style="group;fillColor=none;" parent="1" vertex="1" connectable="0">
          <mxGeometry x="1008.5" y="-786.0008326081652" width="155" height="153.21342916862187" as="geometry" />
        </mxCell>
        <mxCell id="rH-5OL1kYu_r9igjsGon-663" value="" style="rounded=1;whiteSpace=wrap;html=1;fillColor=#F7F7F7;strokeColor=#CCCCCC;movable=1;resizable=1;rotatable=1;deletable=1;editable=1;locked=0;connectable=1;fontColor=#242424;container=0;shadow=1;" parent="rH-5OL1kYu_r9igjsGon-662" vertex="1">
          <mxGeometry width="155" height="153.21342916862187" as="geometry" />
        </mxCell>
        <mxCell id="rH-5OL1kYu_r9igjsGon-664" style="rounded=0;orthogonalLoop=1;jettySize=auto;html=1;exitX=0.5;exitY=1;exitDx=0;exitDy=0;entryX=0.5;entryY=0;entryDx=0;entryDy=0;dashed=1;endArrow=classicThin;endFill=1;movable=1;resizable=1;rotatable=1;deletable=1;editable=1;locked=0;connectable=1;fontColor=#242424;" parent="rH-5OL1kYu_r9igjsGon-662" source="rH-5OL1kYu_r9igjsGon-666" target="rH-5OL1kYu_r9igjsGon-673" edge="1">
          <mxGeometry relative="1" as="geometry" />
        </mxCell>
        <mxCell id="rH-5OL1kYu_r9igjsGon-665" style="rounded=0;orthogonalLoop=1;jettySize=auto;html=1;exitX=0.5;exitY=1;exitDx=0;exitDy=0;entryX=0.5;entryY=0;entryDx=0;entryDy=0;dashed=1;endArrow=classicThin;endFill=1;movable=1;resizable=1;rotatable=1;deletable=1;editable=1;locked=0;connectable=1;fontColor=#242424;" parent="rH-5OL1kYu_r9igjsGon-662" source="rH-5OL1kYu_r9igjsGon-666" target="rH-5OL1kYu_r9igjsGon-674" edge="1">
          <mxGeometry relative="1" as="geometry" />
        </mxCell>
        <mxCell id="rH-5OL1kYu_r9igjsGon-666" value="" style="ellipse;whiteSpace=wrap;html=1;fillColor=#E1D5E7;strokeColor=#A680B8;movable=1;resizable=1;rotatable=1;deletable=1;editable=1;locked=0;connectable=1;fontColor=#242424;container=0;" parent="rH-5OL1kYu_r9igjsGon-662" vertex="1">
          <mxGeometry x="9.75" y="48.67131814572889" width="30" height="29.654212097152623" as="geometry" />
        </mxCell>
        <mxCell id="rH-5OL1kYu_r9igjsGon-667" style="rounded=0;orthogonalLoop=1;jettySize=auto;html=1;exitX=0.5;exitY=1;exitDx=0;exitDy=0;entryX=0.5;entryY=0;entryDx=0;entryDy=0;dashed=1;endArrow=classicThin;endFill=1;movable=1;resizable=1;rotatable=1;deletable=1;editable=1;locked=0;connectable=1;fontColor=#242424;" parent="rH-5OL1kYu_r9igjsGon-662" source="rH-5OL1kYu_r9igjsGon-669" target="rH-5OL1kYu_r9igjsGon-673" edge="1">
          <mxGeometry relative="1" as="geometry" />
        </mxCell>
        <mxCell id="rH-5OL1kYu_r9igjsGon-668" style="rounded=0;orthogonalLoop=1;jettySize=auto;html=1;exitX=0.5;exitY=1;exitDx=0;exitDy=0;entryX=0.5;entryY=0;entryDx=0;entryDy=0;dashed=1;endArrow=classicThin;endFill=1;movable=1;resizable=1;rotatable=1;deletable=1;editable=1;locked=0;connectable=1;fontColor=#242424;" parent="rH-5OL1kYu_r9igjsGon-662" source="rH-5OL1kYu_r9igjsGon-669" target="rH-5OL1kYu_r9igjsGon-674" edge="1">
          <mxGeometry relative="1" as="geometry" />
        </mxCell>
        <mxCell id="rH-5OL1kYu_r9igjsGon-669" value="" style="ellipse;whiteSpace=wrap;html=1;fillColor=#E1D5E7;strokeColor=#A680B8;movable=1;resizable=1;rotatable=1;deletable=1;editable=1;locked=0;connectable=1;fontColor=#242424;container=0;" parent="rH-5OL1kYu_r9igjsGon-662" vertex="1">
          <mxGeometry x="62.75" y="48.67131814572889" width="30" height="29.654212097152623" as="geometry" />
        </mxCell>
        <mxCell id="rH-5OL1kYu_r9igjsGon-670" style="rounded=0;orthogonalLoop=1;jettySize=auto;html=1;exitX=0.5;exitY=1;exitDx=0;exitDy=0;entryX=0.5;entryY=0;entryDx=0;entryDy=0;dashed=1;endArrow=classicThin;endFill=1;movable=1;resizable=1;rotatable=1;deletable=1;editable=1;locked=0;connectable=1;fontColor=#242424;" parent="rH-5OL1kYu_r9igjsGon-662" source="rH-5OL1kYu_r9igjsGon-672" target="rH-5OL1kYu_r9igjsGon-673" edge="1">
          <mxGeometry relative="1" as="geometry" />
        </mxCell>
        <mxCell id="rH-5OL1kYu_r9igjsGon-671" style="rounded=0;orthogonalLoop=1;jettySize=auto;html=1;exitX=0.5;exitY=1;exitDx=0;exitDy=0;entryX=0.5;entryY=0;entryDx=0;entryDy=0;dashed=1;endArrow=classicThin;endFill=1;movable=1;resizable=1;rotatable=1;deletable=1;editable=1;locked=0;connectable=1;fontColor=#242424;" parent="rH-5OL1kYu_r9igjsGon-662" source="rH-5OL1kYu_r9igjsGon-672" target="rH-5OL1kYu_r9igjsGon-674" edge="1">
          <mxGeometry relative="1" as="geometry" />
        </mxCell>
        <mxCell id="rH-5OL1kYu_r9igjsGon-672" value="" style="ellipse;whiteSpace=wrap;html=1;fillColor=#E1D5E7;strokeColor=#A680B8;movable=1;resizable=1;rotatable=1;deletable=1;editable=1;locked=0;connectable=1;fontColor=#242424;container=0;" parent="rH-5OL1kYu_r9igjsGon-662" vertex="1">
          <mxGeometry x="115.75" y="48.67131814572889" width="30" height="29.654212097152623" as="geometry" />
        </mxCell>
        <mxCell id="rH-5OL1kYu_r9igjsGon-673" value="" style="ellipse;whiteSpace=wrap;html=1;fillColor=#CCE5FF;strokeColor=#66B2FF;movable=1;resizable=1;rotatable=1;deletable=1;editable=1;locked=0;connectable=1;fontColor=#242424;container=0;" parent="rH-5OL1kYu_r9igjsGon-662" vertex="1">
          <mxGeometry x="39.75" y="114.89905849603639" width="30" height="29.654212097152623" as="geometry" />
        </mxCell>
        <mxCell id="rH-5OL1kYu_r9igjsGon-674" value="" style="ellipse;whiteSpace=wrap;html=1;fillColor=#CCE5FF;strokeColor=#66B2FF;movable=1;resizable=1;rotatable=1;deletable=1;editable=1;locked=0;connectable=1;fontColor=#242424;container=0;" parent="rH-5OL1kYu_r9igjsGon-662" vertex="1">
          <mxGeometry x="85.75" y="114.89905849603639" width="30" height="29.654212097152623" as="geometry" />
        </mxCell>
        <mxCell id="rH-5OL1kYu_r9igjsGon-675" value="Local Model" style="text;html=1;align=center;verticalAlign=middle;resizable=0;points=[];autosize=1;strokeColor=none;fillColor=none;fontSize=24;fontFamily=Times New Roman;container=0;fontColor=#242424;" parent="rH-5OL1kYu_r9igjsGon-662" vertex="1">
          <mxGeometry x="7.25" y="4.79083260816526" width="141" height="41" as="geometry" />
        </mxCell>
        <mxCell id="rH-5OL1kYu_r9igjsGon-676" value="$$\text{Neighbor}\ j\in N_i$$" style="text;html=1;align=center;verticalAlign=middle;resizable=0;points=[];autosize=1;strokeColor=none;fillColor=none;fontSize=24;fontFamily=Times New Roman;container=0;fontColor=#242424;" parent="1" vertex="1">
          <mxGeometry x="901.5" y="-863.89" width="309" height="41" as="geometry" />
        </mxCell>
        <mxCell id="rH-5OL1kYu_r9igjsGon-679" value="" style="html=1;shadow=0;dashed=0;align=center;verticalAlign=middle;shape=mxgraph.arrows2.stylisedArrow;dy=0.76;dx=18.55;notch=7.74;feather=0.49;rotation=-145;aspect=fixed;fillColor=#FFF2CC;strokeColor=#FFCE9F;fontColor=#242424;" parent="1" vertex="1">
          <mxGeometry x="922.88" y="-801" width="46.96" height="30.98" as="geometry" />
        </mxCell>
        <mxCell id="rH-5OL1kYu_r9igjsGon-680" value="" style="html=1;shadow=0;dashed=0;align=center;verticalAlign=middle;shape=mxgraph.arrows2.stylisedArrow;dy=0.76;dx=18.55;notch=7.74;feather=0.49;rotation=-215;aspect=fixed;fillColor=#FFF2CC;strokeColor=#FFCE9F;fontColor=#242424;" parent="1" vertex="1">
          <mxGeometry x="922.88" y="-700.99" width="46.96" height="30.98" as="geometry" />
        </mxCell>
        <mxCell id="tAAdpkrBhSlqMwErCYq_-10" style="edgeStyle=orthogonalEdgeStyle;rounded=0;orthogonalLoop=1;jettySize=auto;html=1;" parent="1" source="rH-5OL1kYu_r9igjsGon-691" edge="1">
          <mxGeometry relative="1" as="geometry">
            <mxPoint x="448" y="-696" as="targetPoint" />
          </mxGeometry>
        </mxCell>
        <mxCell id="rH-5OL1kYu_r9igjsGon-691" value="Featurn extraction layer" style="text;html=1;align=center;verticalAlign=middle;resizable=0;points=[];autosize=1;strokeColor=none;fillColor=none;fontSize=24;fontFamily=Times New Roman;container=0;fontColor=#242424;" parent="1" vertex="1">
          <mxGeometry x="324.17" y="-904.89" width="247" height="41" as="geometry" />
        </mxCell>
        <mxCell id="rH-5OL1kYu_r9igjsGon-692" value="Output layer" style="text;html=1;align=center;verticalAlign=middle;resizable=0;points=[];autosize=1;strokeColor=none;fillColor=none;fontSize=24;fontFamily=Times New Roman;container=0;fontColor=#242424;" parent="1" vertex="1">
          <mxGeometry x="139.50000000000003" y="-616.79" width="139" height="41" as="geometry" />
        </mxCell>
        <mxCell id="tAAdpkrBhSlqMwErCYq_-1" value="&lt;span style=&quot;font-family: &amp;quot;Times New Roman&amp;quot;; font-style: normal; font-variant-ligatures: normal; font-variant-caps: normal; letter-spacing: normal; orphans: 2; text-align: center; text-indent: 0px; text-transform: none; widows: 2; word-spacing: 0px; -webkit-text-stroke-width: 0px; white-space: nowrap; text-decoration-thickness: initial; text-decoration-style: initial; text-decoration-color: initial; float: none; display: inline !important;&quot;&gt;&lt;font style=&quot;font-size: 20px;&quot;&gt;①&lt;/font&gt;&lt;/span&gt;" style="text;whiteSpace=wrap;html=1;fontStyle=0;fontColor=#FF0000;fillColor=none;" parent="1" vertex="1">
          <mxGeometry x="276" y="-874" width="31.28" height="38" as="geometry" />
        </mxCell>
        <mxCell id="tAAdpkrBhSlqMwErCYq_-2" value="&lt;span style=&quot;font-family: &amp;quot;Times New Roman&amp;quot;; font-style: normal; font-variant-ligatures: normal; font-variant-caps: normal; letter-spacing: normal; orphans: 2; text-align: center; text-indent: 0px; text-transform: none; widows: 2; word-spacing: 0px; -webkit-text-stroke-width: 0px; white-space: nowrap; text-decoration-thickness: initial; text-decoration-style: initial; text-decoration-color: initial; float: none; display: inline !important;&quot;&gt;&lt;font style=&quot;color: rgb(255, 0, 0); font-size: 20px;&quot;&gt;②&amp;nbsp;&lt;/font&gt;&lt;/span&gt;" style="text;whiteSpace=wrap;html=1;" parent="1" vertex="1">
          <mxGeometry x="594.04" y="-757.89" width="27.98" height="37" as="geometry" />
        </mxCell>
        <mxCell id="tAAdpkrBhSlqMwErCYq_-3" value="" style="html=1;shadow=0;dashed=0;align=center;verticalAlign=middle;shape=mxgraph.arrows2.stylisedArrow;dy=0.75;dx=31.61;notch=7.74;feather=0.49;rotation=-125;fillColor=#FFCCCC;strokeColor=#F19C99;fontColor=#242424;" parent="1" vertex="1">
          <mxGeometry x="309.03" y="-770.02" width="84.5" height="47.18" as="geometry" />
        </mxCell>
        <mxCell id="tAAdpkrBhSlqMwErCYq_-5" value="" style="html=1;verticalLabelPosition=bottom;align=center;labelBackgroundColor=#ffffff;verticalAlign=top;strokeWidth=2;strokeColor=#97D077;shadow=0;dashed=0;shape=mxgraph.ios7.icons.data;aspect=fixed;fillColor=#D5E8D4;" parent="1" vertex="1">
          <mxGeometry x="296" y="-839" width="36.92" height="44.76" as="geometry" />
        </mxCell>
        <mxCell id="tAAdpkrBhSlqMwErCYq_-6" value="" style="curved=1;endArrow=classic;html=1;rounded=0;" parent="1" edge="1">
          <mxGeometry width="50" height="50" relative="1" as="geometry">
            <mxPoint x="245" y="-839" as="sourcePoint" />
            <mxPoint x="287" y="-827" as="targetPoint" />
            <Array as="points">
              <mxPoint x="273" y="-854" />
            </Array>
          </mxGeometry>
        </mxCell>
        <mxCell id="tAAdpkrBhSlqMwErCYq_-9" value="" style="curved=1;endArrow=classic;html=1;rounded=0;" parent="1" edge="1">
          <mxGeometry width="50" height="50" relative="1" as="geometry">
            <mxPoint x="286" y="-817" as="sourcePoint" />
            <mxPoint x="246.25" y="-830.77" as="targetPoint" />
            <Array as="points">
              <mxPoint x="259" y="-802" />
            </Array>
          </mxGeometry>
        </mxCell>
        <mxCell id="tAAdpkrBhSlqMwErCYq_-12" value="&lt;span style=&quot;font-size: 20px; font-family: &amp;quot;Times New Roman&amp;quot;; text-align: start; text-wrap-mode: wrap;&quot;&gt;&lt;font style=&quot;color: rgb(255, 0, 0);&quot;&gt;③&lt;/font&gt;&lt;/span&gt;" style="text;html=1;align=center;verticalAlign=middle;resizable=0;points=[];autosize=1;strokeColor=none;fillColor=none;" parent="1" vertex="1">
          <mxGeometry x="322.46" y="-693.5" width="38" height="36" as="geometry" />
        </mxCell>
        <mxCell id="tAAdpkrBhSlqMwErCYq_-16" value="&lt;span style=&quot;font-size: 20px; font-family: &amp;quot;Times New Roman&amp;quot;; text-align: start; text-wrap-mode: wrap;&quot;&gt;&lt;font style=&quot;color: rgb(255, 0, 0);&quot;&gt;③&lt;/font&gt;&lt;/span&gt;" style="text;html=1;align=center;verticalAlign=middle;resizable=0;points=[];autosize=1;strokeColor=none;fillColor=none;" parent="1" vertex="1">
          <mxGeometry x="637.5" y="-611.79" width="38" height="36" as="geometry" />
        </mxCell>
        <mxCell id="tAAdpkrBhSlqMwErCYq_-17" value="&lt;span style=&quot;font-style: normal; font-variant-ligatures: normal; font-variant-caps: normal; font-weight: 400; letter-spacing: normal; orphans: 2; text-align: left; text-indent: 0px; text-transform: none; widows: 2; word-spacing: 0px; -webkit-text-stroke-width: 0px; white-space: normal; text-decoration-thickness: initial; text-decoration-style: initial; text-decoration-color: initial; float: none; display: inline !important;&quot;&gt;&lt;font style=&quot;font-size: 20px; color: rgb(255, 0, 0);&quot; face=&quot;Times New Roman&quot;&gt;④&lt;/font&gt;&lt;/span&gt;" style="text;whiteSpace=wrap;html=1;" parent="1" vertex="1">
          <mxGeometry x="420" y="-801.64" width="27.91" height="35.64" as="geometry" />
        </mxCell>
        <mxCell id="tAAdpkrBhSlqMwErCYq_-18" value="&lt;span style=&quot;font-style: normal; font-variant-ligatures: normal; font-variant-caps: normal; font-weight: 400; letter-spacing: normal; orphans: 2; text-align: left; text-indent: 0px; text-transform: none; widows: 2; word-spacing: 0px; -webkit-text-stroke-width: 0px; white-space: normal; text-decoration-thickness: initial; text-decoration-style: initial; text-decoration-color: initial; float: none; display: inline !important;&quot;&gt;&lt;font style=&quot;font-size: 20px; color: rgb(255, 0, 0);&quot; face=&quot;Times New Roman&quot;&gt;④&lt;/font&gt;&lt;/span&gt;" style="text;whiteSpace=wrap;html=1;" parent="1" vertex="1">
          <mxGeometry x="504.68999999999994" y="-801" width="27.91" height="35.64" as="geometry" />
        </mxCell>
      </root>
    </mxGraphModel>
  </diagram>
</mxfile>
